<svg width="32" height="32" viewBox="0 0 32 32" fill="none" xmlns="http://www.w3.org/2000/svg">
<path opacity="0.5" d="M18.25 8.125C18.25 8.57001 18.118 9.00502 17.8708 9.37503C17.6236 9.74504 17.2722 10.0334 16.861 10.2037C16.4499 10.374 15.9975 10.4186 15.561 10.3318C15.1246 10.245 14.7237 10.0307 14.409 9.71599C14.0943 9.40132 13.8801 9.00041 13.7932 8.56395C13.7064 8.1275 13.751 7.6751 13.9213 7.26396C14.0916 6.85283 14.38 6.50143 14.75 6.25419C15.12 6.00696 15.555 5.875 16 5.875C16.5967 5.875 17.169 6.11205 17.591 6.53401C18.0129 6.95597 18.25 7.52826 18.25 8.125Z" fill="#81A2B2"/>
<path d="M21.25 21.2501V16.7501C21.2967 16.0949 21.2114 15.4369 20.999 14.8153C20.7866 14.1937 20.4516 13.621 20.0137 13.1314C19.5758 12.6417 19.044 12.245 18.4499 11.9648C17.8557 11.6846 17.2114 11.5265 16.555 11.5001C15.8142 11.3866 15.0574 11.4395 14.3396 11.655C13.6218 11.8705 12.9609 12.2431 12.4051 12.7458C11.8492 13.2485 11.4123 13.8687 11.126 14.5613C10.8397 15.2539 10.7113 16.0016 10.75 16.7501V21.2501C10.75 22.4951 8.995 23.5001 7.75 23.5001V25.7501H24.25V23.5001C23.005 23.5001 21.25 22.4951 21.25 21.2501Z" fill="#81A2B2"/>
</svg>
