<svg width="16" height="16" viewBox="0 0 16 16" fill="none" xmlns="http://www.w3.org/2000/svg">
<g opacity="0.5">
<g clip-path="url(#clip0)">
<path fill-rule="evenodd" clip-rule="evenodd" d="M12 7C12 9.76142 9.76142 12 7 12C4.23858 12 2 9.76142 2 7C2 4.23858 4.23858 2 7 2C9.76142 2 12 4.23858 12 7ZM11.1922 12.6063C10.0236 13.4816 8.57237 14 7 14C3.13401 14 0 10.866 0 7C0 3.13401 3.13401 0 7 0C10.866 0 14 3.13401 14 7C14 8.5723 13.4816 10.0235 12.6064 11.1921L15.7072 14.2928C16.0977 14.6834 16.0977 15.3165 15.7072 15.7071C15.3167 16.0976 14.6835 16.0976 14.293 15.7071L11.1922 12.6063Z" fill="#33AFFF"/>
</g>
</g>
<defs>
<clipPath id="clip0">
<path d="M0 0H16V16H0V0Z" fill="white"/>
</clipPath>
</defs>
</svg>
