<svg width="32" height="32" viewBox="0 0 32 32" fill="none" xmlns="http://www.w3.org/2000/svg">
<path fill-rule="evenodd" clip-rule="evenodd" d="M24 13.5C24 14.8807 22.8807 16 21.5 16C20.1193 16 19 14.8807 19 13.5C19 12.1193 20.1193 11 21.5 11C22.8807 11 24 12.1193 24 13.5ZM21.2354 17.823C22.243 17.823 23.1775 17.5189 23.9471 17C25.0867 17.0333 26 17.942 26 19.0582V23.7426C26 23.8848 25.8815 24 25.7353 24H17V19.0582C17 18.0904 17.6866 17.2786 18.612 17.0581C19.3644 17.5416 20.2661 17.823 21.2354 17.823Z" fill="#81A2B2" fill-opacity="0.5"/>
<path d="M15.5392 15.5758L15.3919 15.56L15.2665 15.6389C14.3513 16.2147 13.2239 16.5569 12.0001 16.5569C10.7762 16.5569 9.64885 16.2147 8.73369 15.6389L8.60827 15.56L8.46093 15.5758C6.87998 15.7455 5.57333 16.9439 5.57333 18.4872V23.7494C5.57333 24.1743 5.94659 24.4267 6.28571 24.4267H17.7143C18.0534 24.4267 18.4267 24.1743 18.4267 23.7494V18.4872C18.4267 16.944 17.1201 15.7455 15.5392 15.5758Z" fill="#81A2B2" stroke="white" stroke-width="0.853333"/>
<path d="M12 15C13.6569 15 15 13.6569 15 12C15 10.3431 13.6569 9 12 9C10.3431 9 9 10.3431 9 12C9 13.6569 10.3431 15 12 15Z" fill="#81A2B2"/>
</svg>
