<?xml version="1.0" standalone="no"?>
<!DOCTYPE svg PUBLIC "-//W3C//DTD SVG 20010904//EN"
 "http://www.w3.org/TR/2001/REC-SVG-20010904/DTD/svg10.dtd">
<svg version="1.0" xmlns="http://www.w3.org/2000/svg"
 width="260.000000pt" height="260.000000pt" viewBox="0 0 260.000000 260.000000"
 preserveAspectRatio="xMidYMid meet">
<metadata>
Created by potrace 1.11, written by Peter Selinger 2001-2013
</metadata>
<g transform="translate(0.000000,260.000000) scale(0.100000,-0.100000)"
fill="#000000" stroke="none">
<path d="M1265 1360 l0 -720 92 0 93 0 0 720 0 720 -93 0 -92 0 0 -720z"/>
<path d="M7 1653 c3 -10 9 -22 13 -28 4 -5 17 -35 30 -65 22 -53 213 -492 250
-575 9 -22 39 -89 65 -150 26 -60 56 -129 67 -152 l20 -43 94 0 94 0 15 33 c8
17 33 75 55 127 23 52 50 113 60 135 19 43 284 649 306 703 l14 32 -90 0 -90
0 -26 -57 c-14 -32 -48 -110 -76 -173 -27 -63 -57 -133 -68 -155 -25 -54 -47
-105 -120 -275 -34 -80 -65 -148 -69 -152 -4 -4 -85 177 -181 402 l-175 410
-97 0 c-88 0 -97 -2 -91 -17z"/>
<path d="M1630 580 l0 -60 485 0 485 0 0 60 0 60 -485 0 -485 0 0 -60z"/>
</g>
</svg>
