<?xml version="1.0" standalone="no"?>
<!DOCTYPE svg PUBLIC "-//W3C//DTD SVG 20010904//EN"
 "http://www.w3.org/TR/2001/REC-SVG-20010904/DTD/svg10.dtd">
<svg version="1.0" xmlns="http://www.w3.org/2000/svg"
 width="260.000000pt" height="260.000000pt" viewBox="0 0 260.000000 260.000000"
 preserveAspectRatio="xMidYMid meet">
<metadata>
Created by potrace 1.14, written by Peter Selinger 2001-2017
</metadata>
<g transform="translate(0.000000,260.000000) scale(0.100000,-0.100000)"
fill="#000000" stroke="none">
<path d="M1150 2330 c-328 -46 -629 -264 -779 -566 -81 -163 -112 -306 -106
-494 4 -150 7 -167 50 -295 85 -257 251 -456 496 -593 68 -39 242 -97 329
-111 88 -13 310 -6 390 14 333 81 604 311 729 617 35 85 71 214 71 252 0 14
-36 16 -310 16 l-309 0 -20 -46 c-26 -57 -112 -143 -173 -172 -78 -36 -123
-41 -349 -42 l-215 0 0 390 0 390 223 0 c200 0 230 -2 285 -21 105 -35 178
-97 230 -196 l23 -43 308 0 308 0 -6 38 c-12 82 -25 134 -38 150 -5 6 -7 12
-4 12 7 0 -12 47 -49 126 -105 223 -317 419 -554 512 -150 59 -367 84 -530 62z"/>
</g>
</svg>
