<?xml version="1.0" encoding="UTF-8"?>
<svg width="96px" height="77px" viewBox="0 0 96 77" version="1.1" xmlns="http://www.w3.org/2000/svg" xmlns:xlink="http://www.w3.org/1999/xlink">
    <!-- Generator: Sketch 52.3 (67297) - http://www.bohemiancoding.com/sketch -->
    <title>laptop-code-solid</title>
    <desc>Created with Sketch.</desc>
    <g id="Page-3" stroke="none" stroke-width="1" fill="none" fill-rule="evenodd">
        <g id="laptop-code-solid" fill="#EEEEEE" fill-rule="nonzero">
            <path d="M38.2545,39.349707 C39.192,40.2896484 40.7115,40.2896484 41.649,39.349707 L43.3455,37.6487891 C44.283,36.7088477 44.283,35.1853906 43.3455,34.2454492 L37.9875,28.875 L43.344,23.5030469 C44.2815,22.5631055 44.2815,21.0396484 43.344,20.099707 L41.6475,18.3987891 C40.71,17.4588477 39.1905,17.4588477 38.253,18.3987891 L29.502,27.1725781 C28.5645,28.1125195 28.5645,29.6359766 29.502,30.575918 L38.2545,39.349707 Z M52.656,37.650293 L54.3525,39.3512109 C55.29,40.2911523 56.8095,40.2911523 57.747,39.3512109 L66.498,30.5774219 C67.4355,29.6374805 67.4355,28.1140234 66.498,27.174082 L57.747,18.400293 C56.8095,17.4603516 55.29,17.4603516 54.3525,18.400293 L52.656,20.1012109 C51.7185,21.0411523 51.7185,22.5646094 52.656,23.5045508 L58.0125,28.875 L52.656,34.2469531 C51.7185,35.1868945 51.7185,36.7103516 52.656,37.650293 Z M93.6,62.5625 L57.231,62.5625 C57.12,65.5417383 55.0245,67.375 52.32,67.375 L43.2,67.375 C40.3965,67.375 38.247,64.7476758 38.2845,62.5625 L2.4,62.5625 C1.08,62.5625 0,63.6453125 0,64.96875 L0,67.375 C0,72.66875 4.32,77 9.6,77 L86.4,77 C91.68,77 96,72.66875 96,67.375 L96,64.96875 C96,63.6453125 94.92,62.5625 93.6,62.5625 Z M86.4,7.21875 C86.4,3.2484375 83.16,0 79.2,0 L16.8,0 C12.84,0 9.6,3.2484375 9.6,7.21875 L9.6,57.75 L86.4,57.75 L86.4,7.21875 Z M76.8,48.125 L19.2,48.125 L19.2,9.625 L76.8,9.625 L76.8,48.125 Z" id="Shape"></path>
        </g>
    </g>
</svg>