<svg width="32" height="32" viewBox="0 0 32 32" fill="none" xmlns="http://www.w3.org/2000/svg">
<g clip-path="url(#clip0)">
<path d="M29 0H3C2.20435 0 1.44129 0.31607 0.87868 0.87868C0.31607 1.44129 0 2.20435 0 3L0 29C0 29.7956 0.31607 30.5587 0.87868 31.1213C1.44129 31.6839 2.20435 32 3 32H29C29.7956 32 30.5587 31.6839 31.1213 31.1213C31.6839 30.5587 32 29.7956 32 29V3C32 2.20435 31.6839 1.44129 31.1213 0.87868C30.5587 0.31607 29.7956 0 29 0V0ZM9 8C9.79565 8 10.5587 8.31607 11.1213 8.87868C11.6839 9.44129 12 10.2044 12 11C12 11.7956 11.6839 12.5587 11.1213 13.1213C10.5587 13.6839 9.79565 14 9 14C8.20435 14 7.44129 13.6839 6.87868 13.1213C6.31607 12.5587 6 11.7956 6 11C6 10.2044 6.31607 9.44129 6.87868 8.87868C7.44129 8.31607 8.20435 8 9 8ZM4 28L10 20.5L14.3 25.5L20.3 18L28 28H4Z" fill="#33AFFF"/>
</g>
<defs>
<clipPath id="clip0">
<rect width="32" height="32" fill="white"/>
</clipPath>
</defs>
</svg>
