<svg width="175" height="178" viewBox="0 0 175 178" fill="none" xmlns="http://www.w3.org/2000/svg">
<path d="M88.8812 177.896C88.9469 177.989 89.1268 177.967 89.168 177.702L88.9193 177.48L88.8812 177.896Z" fill="#81A2B2" fill-opacity="0.5"/>
<path d="M89.9353 176.167C89.881 175.841 89.7269 175.457 89.3921 175.629C89.5924 175.968 89.4509 176.026 89.7002 176.397C89.659 176.662 89.47 176.847 89.3744 176.785C89.44 176.878 89.1905 177.19 89.3395 177.354C89.5099 177.185 89.6402 176.978 89.7152 176.757C89.7902 176.537 89.8069 176.311 89.7632 176.108C89.8354 176.035 89.8847 176.142 89.9353 176.167Z" fill="#81A2B2" fill-opacity="0.5"/>
<path d="M96.9731 150.316L96.9032 150.484C96.9343 150.43 96.9579 150.374 96.9731 150.316Z" fill="#81A2B2" fill-opacity="0.5"/>
<path d="M100.049 134.224C100.039 134.348 100.061 134.398 100.09 134.402C100.088 134.289 100.082 134.197 100.049 134.224Z" fill="#81A2B2" fill-opacity="0.5"/>
<path d="M100.814 131.458L100.772 131.62C100.805 131.547 100.845 131.512 100.814 131.458Z" fill="#81A2B2" fill-opacity="0.5"/>
<path d="M96.9731 150.316L97.1591 149.887C97.0548 149.85 97.0299 150.101 96.9731 150.316Z" fill="#81A2B2" fill-opacity="0.5"/>
<path d="M90.2277 172.538C90.2163 172.622 90.2209 172.704 90.2413 172.779C90.2476 172.705 90.2604 172.63 90.2733 172.556C90.2565 172.554 90.2411 172.547 90.2277 172.538Z" fill="#81A2B2" fill-opacity="0.5"/>
<path d="M95.6749 157.404L95.6431 157.534C95.6657 157.58 95.6945 157.62 95.7289 157.656L95.6749 157.404Z" fill="#81A2B2" fill-opacity="0.5"/>
<path d="M94.3873 162.855C94.4282 162.728 94.1795 162.671 94.0784 162.62C94.117 162.651 94.147 162.692 94.1662 162.74C94.1853 162.788 94.1934 162.841 94.1896 162.898C94.2546 162.899 94.3222 162.884 94.3873 162.855Z" fill="#81A2B2" fill-opacity="0.5"/>
<path d="M91.6133 171.426L91.6058 171.581C91.611 171.529 91.6135 171.477 91.6133 171.426Z" fill="#81A2B2" fill-opacity="0.5"/>
<path d="M96.6102 153.494C96.6462 153.489 96.6822 153.472 96.7132 153.446C96.677 153.449 96.6401 153.466 96.6102 153.494Z" fill="#81A2B2" fill-opacity="0.5"/>
<path d="M87.2515 9.64476L87.2921 9.60995C87.2607 9.60244 87.2369 9.60564 87.2515 9.64476Z" fill="#81A2B2" fill-opacity="0.5"/>
<path d="M86.5073 3.56079L86.5502 3.62152C86.6002 3.60294 86.6494 3.57995 86.6973 3.55284L86.5073 3.56079Z" fill="#81A2B2" fill-opacity="0.5"/>
<path d="M101.78 126.41C101.789 126.488 101.789 126.562 101.78 126.41V126.41Z" fill="#81A2B2" fill-opacity="0.5"/>
<path d="M103.547 80.9225C103.31 81.5099 103.206 80.1819 102.964 81.0204C103.073 80.9158 103.416 81.5963 103.547 80.9225Z" fill="#81A2B2" fill-opacity="0.5"/>
<path d="M90.3008 172.402L90.3616 172.183C90.3345 172.255 90.3141 172.328 90.3008 172.402Z" fill="#81A2B2" fill-opacity="0.5"/>
<path d="M102.83 114.9C102.778 114.93 102.731 114.971 102.691 115.018C102.691 115.018 102.748 114.969 102.83 114.9Z" fill="#81A2B2" fill-opacity="0.5"/>
<path d="M101.612 123.514L101.673 123.296C101.643 123.367 101.623 123.441 101.612 123.514Z" fill="#81A2B2" fill-opacity="0.5"/>
<path d="M102.817 110.488C102.846 110.372 102.892 110.327 102.865 110.178C102.849 110.189 102.834 110.202 102.82 110.216C102.842 110.253 102.854 110.297 102.853 110.345C102.853 110.392 102.84 110.442 102.817 110.488Z" fill="#81A2B2" fill-opacity="0.5"/>
<path d="M103.061 105.886C103.039 105.916 103.019 105.946 103.001 105.977L103.01 106.119L103.061 105.886Z" fill="#81A2B2" fill-opacity="0.5"/>
<path d="M91.491 21.7385C91.5303 21.631 91.5886 21.5284 91.6626 21.4366C91.4995 21.5935 91.2381 21.0204 91.491 21.7385Z" fill="#81A2B2" fill-opacity="0.5"/>
<path d="M90.3737 172.551C90.3478 172.538 90.3273 172.518 90.3144 172.492C90.3015 172.465 90.2969 172.434 90.3008 172.402L90.2733 172.556C90.326 172.557 90.3412 172.579 90.3737 172.551Z" fill="#81A2B2" fill-opacity="0.5"/>
<path d="M100.704 110.635L100.825 109.884C100.771 110.135 100.731 110.386 100.704 110.635Z" fill="#81A2B2" fill-opacity="0.5"/>
<path d="M98.4245 51.851L98.363 51.7086C98.3633 51.7666 98.3853 51.8175 98.4245 51.851Z" fill="#81A2B2" fill-opacity="0.5"/>
<path d="M100.879 107.744C100.971 107.609 101.039 107.46 101.079 107.308C101.066 107.276 101.047 107.248 101.021 107.226L100.879 107.744Z" fill="#81A2B2" fill-opacity="0.5"/>
<path d="M89.704 17.5287C89.8904 18.1433 90.1222 17.6407 90.3613 17.6653C90.6894 18.342 90.2187 18.1373 90.1251 18.4756C90.3602 18.8822 90.7762 19.0649 90.8745 19.4165C90.8217 19.4617 90.8296 19.5467 90.7486 19.5244C91.1728 19.8664 91.2166 20.953 91.7344 21.3352C91.7267 21.3774 91.7048 21.4186 91.6728 21.4511C91.7881 21.3058 91.9389 21.1948 92.1017 21.1352C92.1948 21.4053 92.4766 21.5366 92.2906 21.7533C92.2419 21.5829 92.1461 21.6133 92.05 21.5695L92.2266 21.8196C91.992 22.2444 91.9894 21.4838 91.755 21.6043C92.0369 22.1141 92.492 22.6476 92.5567 23.1084C92.2723 23.352 92.133 22.1579 92.037 22.8711L91.9436 22.1482C91.6128 22.9076 91.8515 21.7224 91.4752 22.4635C91.6531 23.3893 91.9587 23.3511 92.1114 24.2871C92.337 24.4035 92.3469 24.0853 92.5751 24.2052C93.2309 25.3181 92.0558 25.6023 92.7212 26.3226C92.9949 26.4609 93.405 26.3676 93.3813 27.1278L92.9665 27.076C93.1668 27.9596 93.6097 27.322 93.6147 28.3444C93.4331 28.2534 93.3138 27.7247 93.2916 27.8871C93.158 28.621 93.5968 28.1991 93.7274 28.6608L93.439 28.9079C93.7325 29.8035 94.2313 30.7125 94.5585 31.7111C94.4521 31.699 94.3086 31.5697 94.2734 31.8522C94.522 32.4888 94.707 33.1616 94.8261 33.8621C94.9382 34.5747 94.9824 35.3111 95.0232 35.9873L95.4033 36.3499C95.4248 36.4634 95.3225 36.6141 95.2286 36.4996C95.2454 37.0587 95.4121 36.4456 95.5682 36.6388C95.6481 36.9087 95.4926 37.0764 95.3744 36.9367C95.802 37.7174 96.4132 39.2011 96.3199 40.2504L96.2113 40.0968C96.2535 40.8579 96.9501 40.6625 96.8376 41.4356L96.7619 41.3284C96.8713 42.1294 97.082 42.9354 97.2502 43.7089C97.4232 44.4073 97.4671 45.16 97.3798 45.9322C97.8179 45.9985 97.4708 47.5748 98.0401 47.4484C97.9174 48.4655 97.7766 48.2477 97.8071 49.5923C97.8396 49.943 98.2383 49.9627 98.3573 50.3712L98.0662 50.4945L98.4698 50.9459L98.1728 51.3839L98.3142 51.7502C98.3076 51.5838 98.3882 51.3657 98.4794 51.3563C98.7161 51.9221 98.5316 52.9348 98.3804 53.0069L98.8754 54.3722C98.7538 54.3847 98.6754 54.1536 98.5659 53.9894C98.9958 54.6534 98.2774 54.2365 98.6746 54.854C98.7271 54.7345 98.8555 54.8424 98.9163 54.8362C98.8403 55.4689 98.8934 56.0822 99.0723 56.6354L98.8601 56.5935C98.9439 57.709 99.2423 58.8699 99.3855 60.1064C99.4268 59.6295 99.7911 59.6098 99.8672 59.9576L99.6154 60.1733C99.8369 60.3392 99.6838 59.7534 99.9797 60.1537C99.9992 60.6245 99.6645 60.5844 99.5293 60.3561L99.7093 60.8786C99.624 60.9517 99.5554 60.8269 99.4313 60.8358C99.6528 61.0016 99.2436 61.9085 99.6164 62.1225L99.5352 62.1921C99.6825 63.4252 99.8625 63.9477 100.001 64.9472C100.271 64.8767 100.254 65.3045 100.515 65.5168C100.427 66.3825 100.402 67.2395 100.441 68.0804C100.626 68.6738 100.684 68.1935 100.864 68.4295C100.625 68.5535 100.721 69.4463 100.508 69.0329C100.6 69.9482 100.756 70.8416 100.975 71.7067C101.063 71.5275 101.093 71.3475 101.184 71.4125C101.246 71.6468 101.128 72.006 101.009 72.0043L100.971 71.9507C101.459 73.3796 100.56 75.6982 101.131 76.7921L101.093 76.7385L101.405 77.9456C101.381 78.5396 101.198 77.6527 101.072 78.1214C101.535 79.3943 101.097 80.3255 101.421 81.3842C100.735 82.4535 101.594 84.4996 101.174 85.8061L101.343 85.6952C101.527 85.9561 101.264 86.0903 101.229 86.3268C101.361 86.265 101.372 85.9574 101.468 86.1215C101.601 87.4322 101.593 88.7852 101.444 90.1573C101.332 91.5495 101.173 92.9587 101.114 94.3056C101.066 95.2989 102.025 94.6721 101.583 96.0031L101.261 95.705C101.417 96.672 101.47 97.6757 101.421 98.6998C101.334 99.7149 101.335 100.716 101.422 101.693C101.351 101.592 101.26 101.602 101.269 101.411C101.02 101.871 101.188 102.949 101.376 102.919C101.341 103.23 101.201 103.023 101.1 103.23C100.945 103.667 101.35 104.221 101.111 104.483C101.066 104.521 101.038 104.379 101.024 104.305C101.124 104.557 100.942 105.573 101.224 105.28C101.069 106.039 101.281 106.671 101.097 107.288C101.378 107.621 100.9 108.569 101.311 108.624C100.881 108.643 100.918 109.97 101.063 110.414C100.959 110.268 100.894 110.84 100.734 110.696C100.693 111.23 100.735 111.704 100.96 111.58C100.372 112.658 101.211 113.505 100.502 114.153C100.601 115.714 100.63 117.168 100.611 118.59C100.186 118.588 100.701 117.01 100.237 117.138C100.3 118.472 100.605 119.209 100.387 120.571C100.297 120.924 100.215 120.392 100.173 120.268C100.191 120.913 100.145 121.572 100.037 122.236C99.9365 122.863 99.8972 123.484 99.9201 124.092C99.8806 124.091 99.8393 123.977 99.8381 123.846C99.8188 124.087 99.7019 124.41 99.9037 124.364L99.8804 124.137C100.231 123.71 100.353 125.028 100.519 125.041C100.011 124.691 100.228 126.254 99.6044 125.675C99.6167 125.831 99.6846 126.02 99.8164 125.976C99.7485 126.212 99.6641 126.295 99.5447 126.071C99.5486 126.916 99.7905 126.594 99.6872 127.371C99.5935 127.377 99.5812 127.221 99.4806 127.152C99.6621 127.584 99.6822 128.1 99.5376 128.618C99.5048 128.571 99.4017 128.665 99.4316 128.468C99.3188 129.591 99.6811 130.353 99.3455 131.604C98.9856 131.27 99.162 132.037 98.7995 132.123C98.8111 132.343 98.8096 132.562 98.808 132.781L99.0235 132.505C98.9197 133.087 99.0937 133.592 98.8932 134.102L98.8184 133.673L98.7092 134.765L98.9261 134.149C99.0107 134.73 99.3848 134.059 99.1573 134.845C99.145 134.689 99.056 135.431 98.7882 135.735C98.889 136.034 98.8851 136.382 98.7771 136.725C98.643 136.84 98.4023 136.656 98.313 136.733C98.5615 137.002 98.1701 138.1 98.4256 138.443C98.3999 138.397 98.3579 138.365 98.3061 138.352C98.2544 138.339 98.1961 138.346 98.1406 138.372L98.3416 138.601C98.2224 138.875 98.1777 138.914 98.0288 138.869C97.8545 139.684 98.4956 138.607 98.1679 139.564C98.161 139.49 98.1326 139.514 98.1081 139.369C97.8457 140.345 97.9432 141.231 97.6855 142.14C97.2897 142.41 97.7296 141.362 97.365 141.686C97.2884 142.325 97.2887 142.99 97.2642 143.648C97.2441 144.291 97.1534 144.946 96.9937 145.6L97.0815 145.365C97.5491 145.537 96.6514 146.307 96.7481 146.923C96.745 146.771 96.5171 146.726 96.5646 146.765C96.3086 147.621 96.3271 148.506 96.2194 149.803L96.1134 149.652C95.9145 150.272 95.7455 150.896 95.607 151.52C95.7131 151.67 95.6134 151.991 95.8191 151.82C94.7392 153.485 95.5859 155.025 94.5911 156.497C94.6321 156.324 94.5846 156.073 94.5473 156.214L94.356 157.484C94.5949 157.389 94.5348 157.331 94.7553 157.062C94.8489 157.312 94.8568 157.604 94.778 157.897C94.7775 157.324 94.4315 157.896 94.2541 158.134C94.3317 158.096 94.3791 158.182 94.4521 158.165C93.9114 158.812 94.854 158.291 94.378 159.186L94.2768 159.135C94.3117 159.449 94.3015 159.777 94.2465 160.108C93.9614 160.249 94.2236 159.743 94.0306 159.719C93.9158 160.23 94.2489 160.748 93.8854 161.203C93.8739 160.983 93.9456 160.669 93.934 160.45C93.6841 160.712 93.5097 161.038 93.4387 161.373L93.4671 161.349L93.1265 162.214L93.2598 161.997C93.7393 162.676 93.0618 163.314 93.2663 164.194C93.0744 163.331 93.0681 164.042 92.8018 163.961C92.6726 164.175 92.504 164.508 92.4587 164.398C92.5812 164.821 92.115 165.065 92.3095 165.673C92.2127 165.693 92.1919 166.107 91.9869 166.001C91.9334 166.534 92.1777 165.883 92.2774 165.941C92.3989 166.778 91.3713 167.825 91.4654 169.029C91.3478 170.053 91.5955 170.265 91.4776 171.215C91.2427 171.52 91.2295 170.929 91.2295 170.929C90.9721 171.36 90.821 171.833 90.7929 172.295C90.7272 172.202 90.647 172.282 90.5083 172.418C90.4197 172.81 90.7589 172.708 90.4784 173.207C90.3675 173.091 90.2843 172.948 90.2333 172.786C90.1819 173.249 90.2309 173.706 90.1643 174.193C89.9751 174.303 90.0131 173.887 89.9594 173.709C89.8795 174.242 89.6964 175.081 89.9036 175.282L90.0879 174.952C90.0448 175.15 89.8496 175.03 89.8489 174.882C89.7833 174.41 90.1181 174.238 90.2174 174.222L90.1765 174.561C90.7984 174.269 90.4784 173.207 90.701 172.534L90.9981 172.853L90.8809 172.134C91.0312 172.005 91.266 171.913 91.2251 172.252C91.548 171.786 91.2126 171.809 91.5414 171.407C91.5861 171.369 91.5987 171.387 91.5986 171.433L91.6216 170.948C91.6872 171.041 91.9146 170.892 91.7806 171.173C92.2428 170.342 91.8901 169.778 92.2683 169.482L92.2727 169.553C92.4824 168.364 92.0253 169.415 91.9496 168.505L92.8138 167.965L92.5664 167.827C92.6098 167.704 92.7016 167.465 92.7987 167.519C92.7396 167.048 92.6582 167.588 92.5535 167.311C92.9876 166.744 92.8587 165.684 93.3402 165.581C93.1787 165.353 93.0384 166.133 93.0385 165.496C93.5784 165.337 93.1351 164.765 93.4901 164.243C93.6994 164.419 93.4412 164.921 93.7962 164.399C93.4566 164.048 94.1423 163.357 94.1765 162.898C93.8483 162.858 94.2773 161.905 94.3553 161.139C94.4524 161.193 94.8899 159.717 95.186 159.01L95.2366 159.036C94.929 158.886 95.1746 158.154 95.2347 157.621C95.4327 157.652 95.4877 157.748 95.5224 158.028L95.6448 157.527C95.5528 157.357 95.5314 157.143 95.5845 156.925L95.8071 157.056C95.9517 156.393 95.8491 155.712 96.2079 154.854C95.9816 154.801 95.3956 155.55 95.4355 154.609C95.5708 154.58 95.7984 154.551 95.8028 154.788C95.8 154.71 95.7508 154.511 95.8374 154.357L95.9788 154.723C96.153 154.333 95.8349 154.52 95.9214 154.199C96.1042 154.209 96.0998 153.971 96.2354 154.016C96.2408 154.097 96.1071 154.286 96.1534 154.407C96.2343 154.081 96.3969 153.765 96.6233 153.494C96.5143 153.524 96.3731 153.491 96.4265 153.216C96.5437 152.541 96.6905 152.989 96.8673 152.603C96.7587 152.449 96.9883 152.017 96.7173 152.003C96.7604 151.805 96.8932 151.772 96.9851 151.699C96.9353 151.351 97.2806 150.086 96.9087 150.474L96.869 150.565L96.8722 150.505C96.8345 149.39 97.5054 148.162 97.6182 147.038L97.7104 147.04C97.7405 146.371 97.96 145.547 97.8507 145.078C97.8938 144.881 98.1184 144.608 98.2216 144.68C98.1887 144.268 98.2589 143.832 98.426 143.41C98.4997 143.92 98.6043 143.228 98.4505 143.933C98.6396 143.278 98.8174 143.114 98.6799 142.412C98.8768 142.645 99.0621 141.901 99.0417 141.586L98.7963 142.06C98.8231 141.735 98.8792 141.406 98.964 141.079L99.2462 141.238C99.8547 139.857 99.0032 138.808 99.8125 137.748C99.6548 137.396 99.5375 138.494 99.321 138.169C99.4685 137.538 100.025 136.867 100.061 136.669C100.385 135.817 99.7347 135.893 100.002 134.999C99.8684 135.113 99.5357 135.261 99.5582 134.582C99.7042 133.958 100.155 133.784 100.182 134.173C100.166 134.325 100.12 134.399 100.085 134.395C100.09 134.596 100.093 134.858 100.241 134.616L100.142 134.541C100.307 134.221 100.438 133.363 100.585 133.553C100.562 133.086 100.446 133.356 100.322 133.715C100.509 133.02 100.652 132.322 100.751 131.627C100.671 131.764 100.528 131.893 100.546 131.762C100.835 130.546 100.398 131.247 100.453 130.431C100.677 129.953 100.837 130.567 100.796 129.753C100.977 129.243 101.109 129.623 101.175 129.819C101.052 129.081 101.483 128.408 101.586 127.964L101.627 128.353C101.612 128.15 101.621 127.94 101.654 127.728L101.403 127.972C101.471 127.736 101.496 127.541 101.59 127.536C101.471 127.311 101.189 127.753 101.048 127.295C101.201 126.975 101.043 126.364 101.357 126.227C101.135 127.214 101.667 126.093 101.616 126.917C101.601 126.726 101.628 126.525 101.695 126.327C101.736 126.293 101.752 126.353 101.758 126.417C102.143 125.456 101.476 126.016 101.603 125.053C101.755 125.157 101.95 124.796 101.954 124.626C101.902 125.014 101.653 124.837 101.567 124.493C101.773 123.863 101.553 123.828 101.611 123.503L101.499 123.88C101.348 123.768 101.409 123.458 101.409 123.034C101.543 122.982 101.451 123.416 101.526 123.254C101.29 122.809 101.971 122.139 101.854 121.494C102.004 121.171 102.172 121.428 102.26 121.146C102.127 120.422 102.564 120.312 102.442 119.557C102.194 119.815 102.247 119.844 102.063 119.307L102.113 120.578L101.856 119.789C101.817 120.177 101.928 120.593 101.869 120.833C101.716 120.459 101.772 120.492 101.568 120.701C101.953 120.13 101.469 119.638 101.741 119.027L102.3 118.978C102.628 118.02 102.156 117.381 102.395 116.149L102.265 116.547C102.056 116.417 102.294 115.812 102.232 115.429C102.415 115.439 102.508 115.192 102.635 115.003C102.494 115.044 102.725 114.124 102.357 114.065L102.651 113.493C102.836 112.509 102.209 112.461 102.35 111.525C102.529 111.779 102.7 111.329 102.796 111.935C102.821 111.62 102.88 111.335 102.75 111.354C102.883 111.154 102.571 110.527 102.762 110.198C102.683 110.087 102.499 110.067 102.543 109.713C102.588 109.675 102.635 109.704 102.635 109.704C102.635 109.704 102.544 109.179 102.319 109.516C102.95 108.47 102.399 106.86 102.935 105.948C102.902 105.283 102.878 104.483 102.892 103.874C102.925 103.921 102.985 103.858 102.962 103.975C103.177 103.097 102.443 103.553 102.684 102.556C103.008 102.008 102.827 103.035 102.955 102.708C103.583 102.462 102.933 101.579 103.31 100.849L103.34 101.001C103.573 100.463 103.166 99.8315 103.244 99.019C103.244 99.019 103.274 99.0619 103.336 99.0027C103.07 98.3012 102.912 97.54 102.868 96.7427C103.111 96.9301 102.999 97.0665 103.244 96.8683C103.208 96.5317 102.846 97.0537 102.779 96.3771C102.914 96.1243 103.022 95.5953 103.295 95.4823L103.309 96.1299C103.667 95.714 103.297 95.2913 103.361 94.9385L103.511 94.9477C103.465 93.9601 103.09 94.0291 103.119 92.9542L103.005 93.087C102.644 92.5761 103.218 92.5487 102.921 92.0458L103.302 91.7823C103.119 91.1574 102.979 90.5114 102.882 89.8485C103.142 90.332 103.337 90.8596 103.464 91.4202C103.465 91.0347 103.44 90.1217 103.252 89.9669C103.29 90.1125 103.381 90.2871 103.321 90.4525C103.006 89.9633 102.857 89.3552 102.894 88.7026C103.617 88.6561 103.093 86.6678 103.595 86.0028C103.271 84.7318 103.609 83.3181 103.504 81.7672C102.955 82.467 103.471 81.314 102.891 81.5641C102.839 81.2131 102.844 81.0717 102.866 81.0119L103.177 79.817C103.332 79.5115 103.317 80.1268 103.444 80.0578C103.462 79.2515 103.68 79.6614 103.817 79.0902C103.618 79.2608 103.503 78.8948 103.571 78.4182L103.323 79.1293C102.969 78.102 103.776 78.0355 103.428 76.9977L103.635 77.2907C103.572 77.0174 103.549 76.4865 103.484 75.9691C103.456 75.4982 103.295 75.075 103.02 74.7493C103.079 74.6298 103.227 74.4515 103.291 74.6894C103.252 73.3057 102.556 71.8032 102.751 70.6669L102.899 70.7291C102.839 70.4877 102.598 70.3676 102.716 70.0084C102.775 70.0092 102.868 70.0671 102.864 69.9504C102.708 69.6771 102.627 69.3532 102.627 69.0061L102.799 69.249C102.879 67.867 102.245 67.3381 102.057 66.2601C102.468 66.1315 102.538 65.0394 102.539 64.5053L102.602 64.5026C102.466 62.9619 101.932 62.0312 101.592 60.6822C101.937 59.647 101.41 57.6551 101.502 56.1707C101.457 56.4106 101.174 56.251 101.1 56.0165C101.145 55.6563 100.701 55.2114 101.087 55.1214L101.094 55.2417C101.431 54.8609 101.266 54.2112 101.182 53.6865L100.667 53.7889C101.164 52.1475 99.7952 50.3206 100.319 49.3269C100.127 49.0554 100.073 48.6372 99.892 48.3623L100.162 48.2741C100.128 47.4115 100.027 46.5679 99.8602 45.7512L100.087 45.9065C99.9967 45.2614 99.1842 45.4128 99.0692 44.8346L99.4469 44.5109C99.2735 43.3977 99.3517 42.1607 98.7638 41.2363C98.8203 41.2226 98.8753 41.2296 98.9191 41.2561C98.9629 41.2827 98.9926 41.3269 99.0031 41.3811C98.9046 40.8633 98.8286 39.2881 98.3387 39.7021C98.6892 39.5337 98.1278 38.5637 97.8287 38.0572L98.1074 38.0363C97.7316 37.8347 97.4592 37.4914 97.3327 37.0597C97.3316 36.8828 97.5101 36.8217 97.4892 37.069C97.513 36.475 97.1511 36.7565 97.1474 36.0313L97.3673 36.2041C97.3624 36.0441 97.3196 35.8961 97.2425 35.7725C97.1654 35.649 97.0563 35.5535 96.9243 35.494C96.7427 35.1908 96.7569 34.3986 96.9763 34.2106C96.8504 34.1744 96.7444 34.0994 96.67 33.9942C96.5956 33.8889 96.5558 33.7573 96.5548 33.614C96.6441 33.5374 96.7179 33.6233 96.7573 33.6699C96.7326 32.6472 96.1013 32.4367 96.2 31.6811C96.2327 31.6621 96.2616 31.6351 96.2838 31.603C96.3059 31.571 96.3204 31.535 96.3257 31.4989C96.4483 31.9174 96.5475 32.3474 96.6228 32.7872C96.8622 32.6738 96.7564 32.0533 97.2034 32.3815C96.9131 31.9706 96.2865 31.3604 96.2456 30.7302C96.2605 30.6896 96.2813 30.6505 96.3072 30.6143L96.345 30.6679C96.3337 30.5341 96.287 30.4138 96.2096 30.3193C96.2083 30.1397 96.1877 29.965 96.1482 29.7985C96.3309 29.6419 96.0735 29.0652 96.0089 28.7707C95.7512 28.9227 95.6914 28.5151 95.5702 28.9803C95.5784 28.9274 95.6055 29.0303 95.6815 29.2118C95.7025 29.2492 95.727 29.2838 95.7547 29.3154L95.7396 29.294L95.9211 30.0217C95.8046 29.9489 95.7148 29.8413 95.6604 29.7093C95.6059 29.5773 95.5886 29.4252 95.61 29.2674C95.4014 29.1937 95.1813 29.1128 95.0775 29.0583C95.3272 28.4887 95.3447 27.5905 95.517 27.3913C95.1381 26.5688 94.8572 25.3126 94.2201 24.9924C94.0712 24.7816 94.2804 24.6253 94.3319 24.4952C94.4177 24.6167 94.4608 24.7977 94.5666 24.8274C94.3038 24.3816 94.1124 23.3354 93.7379 23.3867C93.7195 22.6684 94.165 23.5943 93.843 22.7231L93.9806 22.7887C93.9781 20.8007 92.2372 20.4685 92.3286 18.2165C92.3277 18.3721 92.328 18.4464 92.2787 18.5058C92.0392 17.3556 91.6962 16.2523 91.2537 15.2087C90.8303 14.1585 90.5203 13.0426 90.3285 11.8777C90.2051 11.2321 89.9673 11.2924 89.6686 11.0265L89.8963 10.7396L89.3497 10.3075C88.7969 9.571 89.4549 8.41642 88.6105 7.56266L88.4802 7.81199C88.3652 7.40004 87.9032 6.62593 88.1369 6.56908C88.0888 6.54718 87.9003 6.54807 87.9358 6.33986L88.0658 6.22849L87.4727 5.38888C87.2964 4.57633 88.0817 5.17102 87.695 4.05132C87.4791 3.6627 86.8447 3.13381 86.8117 3.34559C86.8645 3.51259 86.8799 3.82055 86.7398 3.91764L86.5152 3.59966C86.0719 3.78445 85.539 3.75929 85.5894 4.84598L86.109 5.34144L85.9815 5.66862L85.766 5.14207C85.6909 5.56196 85.9293 5.6502 86.1291 5.7945C86.0835 5.8544 86.0486 5.92107 86.0267 5.99022C86.0048 6.05935 85.9964 6.12945 86.0019 6.19599L86.6342 6.58337C86.501 6.75484 86.2073 6.49601 86.2608 6.97784C86.5542 7.16238 86.5215 6.4792 86.8437 6.8799C86.7661 7.29623 86.5776 7.29712 86.8738 7.5595C86.7834 7.67143 86.6882 7.63827 86.5877 7.52366C86.8358 7.76415 86.9665 8.34612 87.2401 8.36411C87.1244 8.81881 87.7045 9.40002 87.2936 9.60295C87.5674 9.75611 87.7893 9.98187 87.9424 10.2629C87.2627 10.0022 88.3216 11.3719 87.7568 11.5232C88.332 11.6728 88.4774 12.8386 88.979 13.401C88.9513 13.3617 88.8333 13.3424 88.833 13.2681C88.8942 13.5531 88.9025 13.8587 88.8575 14.1705C89.2297 14.0236 89.5119 14.6077 89.8412 14.8246C89.6672 15.5013 89.3282 14.7537 89.0461 15.0928C89.3273 14.9093 89.6067 15.794 89.7979 15.4925C89.7034 15.9864 89.7964 15.8781 89.564 16.2321C90.0321 16.0547 89.7507 16.5425 90.1251 16.7034C90.0778 17.3748 89.7417 17.0836 90.0772 17.6047C90.0246 17.9825 89.704 17.5287 89.704 17.5287ZM95.0146 32.846C94.9851 32.6934 94.9369 32.5053 94.8837 32.31C94.969 32.2369 95.0669 32.2276 95.0959 32.3519C95.017 32.3048 95.0415 32.6164 95.0136 32.8353L95.0146 32.846ZM96.1178 29.3771C96.207 29.5588 96.1713 29.6467 96.1261 29.7027C96.0934 29.6102 96.0597 29.5072 96.0033 29.372L95.9654 29.3644C96.019 29.3561 96.0711 29.3605 96.1178 29.3771Z" fill="#81A2B2" fill-opacity="0.5"/>
<path d="M95.6917 29.18C95.6751 29.16 95.6599 29.1385 95.6463 29.1157C95.6319 29.1639 95.6224 29.2124 95.6181 29.2604L95.7173 29.2901L95.6917 29.18Z" fill="#81A2B2" fill-opacity="0.5"/>
<path d="M98.0496 50.4802L98.115 50.4529L98.0387 50.3634L98.0496 50.4802Z" fill="#81A2B2" fill-opacity="0.5"/>
<path d="M94.3079 158.099C94.2682 158.118 94.2326 158.149 94.2064 158.186C94.2449 158.165 94.2798 158.135 94.3079 158.099Z" fill="#81A2B2" fill-opacity="0.5"/>
<path d="M93.4387 161.373L93.236 161.834C93.313 161.683 93.3807 161.529 93.4387 161.373Z" fill="#81A2B2" fill-opacity="0.5"/>
<path d="M92.6864 163.899C92.7139 163.924 92.7469 163.942 92.7835 163.953L92.6864 163.899Z" fill="#81A2B2" fill-opacity="0.5"/>
<path d="M99.8031 123.87L99.8008 123.775C99.776 123.555 99.7792 123.707 99.8031 123.87Z" fill="#81A2B2" fill-opacity="0.5"/>
<path d="M98.8045 135.721C98.7751 135.599 98.7539 135.474 98.7411 135.345C98.6884 135.557 98.6556 135.722 98.8045 135.721Z" fill="#81A2B2" fill-opacity="0.5"/>
<path d="M98.851 134.781C98.7747 134.964 98.7411 135.155 98.7533 135.335C98.8173 135.151 98.8504 134.963 98.851 134.781Z" fill="#81A2B2" fill-opacity="0.5"/>
<path d="M89.561 174.779L89.5151 174.899C89.5271 174.905 89.5353 174.916 89.5378 174.931L89.561 174.779Z" fill="#81A2B2" fill-opacity="0.5"/>
<path d="M89.554 174.917L89.537 175.04C89.5735 175.009 89.5757 174.938 89.554 174.917Z" fill="#81A2B2" fill-opacity="0.5"/>
<path d="M89.5302 175.344L89.537 175.04C89.5367 175.132 89.4731 175.273 89.5302 175.344Z" fill="#81A2B2" fill-opacity="0.5"/>
<path d="M90.6343 171.462L90.5514 171.418C90.5705 171.444 90.6001 171.46 90.6343 171.462Z" fill="#81A2B2" fill-opacity="0.5"/>
<path d="M90.8905 170.439C90.7986 170.679 90.5176 171.029 90.4767 171.368L90.544 171.407C90.4567 171.247 90.9744 170.706 90.8905 170.439Z" fill="#81A2B2" fill-opacity="0.5"/>
<path d="M93.2543 166.309C93.1624 166.594 93.0522 166.872 92.9421 167.15C93.0924 167.021 93.2753 166.819 93.1866 167.21C93.7912 166.165 92.9191 167.422 93.2543 166.309Z" fill="#81A2B2" fill-opacity="0.5"/>
<path d="M94.0507 163.67C93.9862 164.133 94.1956 163.673 94.2487 163.702C94.2277 163.404 94.2355 163.323 94.0507 163.67Z" fill="#81A2B2" fill-opacity="0.5"/>
<path d="M98.3212 144.526L98.5465 144.568C98.588 144.211 98.4543 144.567 98.3212 144.526Z" fill="#81A2B2" fill-opacity="0.5"/>
<path d="M97.712 140.913L97.5049 141.257L97.695 141.415L97.712 140.913Z" fill="#81A2B2" fill-opacity="0.5"/>
<path d="M99.7791 138.688L99.7888 138.841L99.7979 138.254L99.7791 138.688Z" fill="#81A2B2" fill-opacity="0.5"/>
<path d="M103.258 106.664L102.957 106.818C102.999 107.045 103.334 107.04 103.258 106.664Z" fill="#81A2B2" fill-opacity="0.5"/>
<path d="M103.345 93.0707C103.434 92.948 103.49 92.8081 103.508 92.6685C103.525 92.529 103.503 92.3962 103.443 92.2868C103.426 92.5943 103.305 92.9216 103.345 93.0707Z" fill="#81A2B2" fill-opacity="0.5"/>
<path d="M101.017 52.9732L101.16 53.1946L100.995 52.7395L101.017 52.9732Z" fill="#81A2B2" fill-opacity="0.5"/>
<path d="M95.6467 12.6031C95.7157 12.544 95.8742 12.4082 95.8048 12.3931L95.5326 12.6263L95.6467 12.6031Z" fill="#81A2B2" fill-opacity="0.5"/>
<path d="M95.9254 11.9453C95.698 12.0799 95.4905 12.2577 95.3161 12.4674C95.5801 12.2411 95.4947 12.3602 95.8085 12.1029C95.8652 12.1001 95.7767 12.2333 95.6818 12.3204C95.7508 12.2612 95.6693 12.4228 95.8374 12.273C95.9935 12.0418 95.9557 11.9882 95.7558 12.1021C95.8054 12.0421 95.8628 11.9891 95.9254 11.9453Z" fill="#81A2B2" fill-opacity="0.5"/>
<path d="M93.6849 8.87517L93.6716 8.92097C93.6807 8.9066 93.6854 8.89047 93.6849 8.87517Z" fill="#81A2B2" fill-opacity="0.5"/>
<path d="M92.1371 7.12731C92.1371 7.12731 92.1736 7.09598 92.198 7.0751C92.1855 7.07876 92.1735 7.08542 92.1628 7.09452C92.1522 7.10363 92.1434 7.11488 92.1371 7.12731Z" fill="#81A2B2" fill-opacity="0.5"/>
<path d="M92.1047 6.56438C92.1047 6.56438 92.1047 6.56438 92.1202 6.58625C92.1356 6.60812 92.1255 6.54657 92.1047 6.56438Z" fill="#81A2B2" fill-opacity="0.5"/>
<path d="M93.6849 8.87517L93.7125 8.7482C93.6322 8.82844 93.6769 8.83614 93.6849 8.87517Z" fill="#81A2B2" fill-opacity="0.5"/>
<path d="M94.977 12.1903C95.0076 12.1826 95.0376 12.1686 95.0653 12.1491L95.0151 12.1519L94.977 12.1903Z" fill="#81A2B2" fill-opacity="0.5"/>
<path d="M95.1987 9.90113C95.0866 9.98187 94.9805 10.0728 94.8818 10.1726C94.9257 10.1166 94.9801 10.0699 95.0403 10.0369L95.1987 9.90113Z" fill="#81A2B2" fill-opacity="0.5"/>
<path d="M85.8943 17.1109L85.8442 17.1137C85.873 17.1177 85.8862 17.1179 85.8943 17.1109Z" fill="#81A2B2" fill-opacity="0.5"/>
<path d="M84.4176 18.2326L84.4009 18.2182L84.2545 18.2233L84.4176 18.2326Z" fill="#81A2B2" fill-opacity="0.5"/>
<path d="M91.834 5.77523C91.8391 5.78252 91.8443 5.7898 91.834 5.77523V5.77523Z" fill="#81A2B2" fill-opacity="0.5"/>
<path d="M85.4611 2.49506C85.6702 2.71732 85.6894 3.15976 85.931 3.35418C85.8101 3.04297 85.6525 2.75481 85.4611 2.49506Z" fill="#81A2B2" fill-opacity="0.5"/>
<path d="M94.9907 12.1447C94.9823 12.1385 94.9761 12.1297 94.9727 12.1192C94.9727 12.1192 94.9756 12.1518 94.9907 12.1447Z" fill="#81A2B2" fill-opacity="0.5"/>
<path d="M90.4788 4.77979C90.4496 4.81487 90.4237 4.85248 90.4015 4.89191C90.4314 4.85732 90.4574 4.81961 90.4788 4.77979Z" fill="#81A2B2" fill-opacity="0.5"/>
<path d="M91.1052 5.95274L91.1094 5.90327C91.0992 5.93497 91.1002 5.9456 91.1052 5.95274Z" fill="#81A2B2" fill-opacity="0.5"/>
<path d="M89.691 4.69827C89.6784 4.68041 89.7155 4.63141 89.6632 4.65897L89.6348 4.68333C89.6871 4.65577 89.7246 4.63508 89.691 4.69827Z" fill="#81A2B2" fill-opacity="0.5"/>
<path d="M89.1095 4.19822L89.0891 4.26162L89.1042 4.28306L89.1095 4.19822Z" fill="#81A2B2" fill-opacity="0.5"/>
<path d="M86.1151 14.7649L85.8723 14.8181C86.0628 14.7925 86.1122 14.8993 86.1151 14.7649Z" fill="#81A2B2" fill-opacity="0.5"/>
<path d="M95.0927 12.0681C95.0662 12.1032 95.0326 12.132 94.9952 12.1516C95.0315 12.13 95.0647 12.1016 95.0927 12.0681Z" fill="#81A2B2" fill-opacity="0.5"/>
<path d="M88.1141 6.49073L88.051 6.40142C88.0593 6.44063 88.0816 6.47231 88.1141 6.49073Z" fill="#81A2B2" fill-opacity="0.5"/>
<path d="M86.8407 9.2108L86.8634 9.24295C86.8634 9.24295 86.872 9.21832 86.8407 9.2108Z" fill="#81A2B2" fill-opacity="0.5"/>
<path d="M87.8022 6.22445C87.8552 6.13321 87.8822 6.06993 87.9056 6.03842L87.8 6.12892L87.8022 6.22445Z" fill="#81A2B2" fill-opacity="0.5"/>
<path d="M86.3779 15.5894C86.404 15.4695 86.0416 15.5563 85.8496 15.543C85.7612 15.418 86.1117 15.4618 86.2993 15.4043C86.2337 15.3114 85.908 15.275 85.9325 15.2081C85.9839 15.1924 86.0356 15.1895 86.083 15.1996C85.8193 15.1217 86.1101 14.9241 85.7754 14.838L85.8656 14.8181C85.7047 14.8444 85.5445 14.861 85.3857 14.8679C85.3874 14.8149 85.1787 14.7872 85.4078 14.7515C85.3875 14.7689 85.4873 14.7809 85.5582 14.789L85.4661 14.7417C85.8017 14.6721 85.5708 14.8069 85.815 14.7926C85.7368 14.6819 85.467 14.5861 85.5929 14.4782C85.9183 14.4403 85.674 14.6668 85.9733 14.5366L85.827 14.6619C86.3477 14.5312 85.7797 14.7426 86.3358 14.616C86.4533 14.4408 86.2045 14.4302 86.3164 14.2655C86.1407 14.2383 86.0494 14.2936 85.8762 14.2699C85.593 14.0537 86.7087 14.0269 86.3149 13.8941C86.1103 13.8629 85.7054 13.8714 85.9363 13.7366L86.2929 13.7522C86.3521 13.5868 85.7834 13.6956 86.0554 13.5084C86.1932 13.528 86.1463 13.637 86.2042 13.5989C86.5034 13.4687 86.0098 13.536 86.0216 13.4513L86.3445 13.4098C86.318 13.2432 86.1072 13.074 86.0829 12.8826C86.1753 12.9003 86.2754 12.8932 86.3748 12.862C86.2502 12.6303 86.4886 12.34 86.7111 12.092L86.4443 12.0281C86.4443 12.0281 86.5736 11.9804 86.6257 11.9988C86.7435 11.8979 86.4489 12.007 86.3446 11.9701C86.3194 11.9344 86.5171 11.8912 86.594 11.917C86.3811 11.7725 86.1498 11.5004 86.4694 11.3068L86.5489 11.3363C86.6785 11.1966 86 11.233 86.2719 11.0918L86.3175 11.1102C86.4808 10.8153 86.2673 10.5222 86.7153 10.2703C86.3176 10.2612 86.9288 9.97261 86.3695 9.99305C86.6638 9.80971 86.7615 9.84645 86.9734 9.6018C87.007 9.53861 86.6366 9.54049 86.5887 9.4726L86.8821 9.44488L86.5879 9.37L86.9438 9.28302L86.8908 9.208C86.8217 9.25587 86.7441 9.28207 86.6697 9.28272C86.5529 9.18203 86.908 8.99246 87.0434 8.96253L86.8323 8.71902C86.913 8.72158 86.9884 8.74316 87.053 8.78225C86.7731 8.67219 87.3642 8.73355 87.1066 8.62735C87.0285 8.64022 86.9514 8.6427 86.8771 8.63473C86.9098 8.62638 86.9417 8.60921 86.9693 8.58504C86.997 8.56086 87.0193 8.53059 87.034 8.49744C87.0487 8.46428 87.0551 8.42949 87.0527 8.39671C87.0503 8.36394 87.0391 8.33443 87.0202 8.31131L87.2178 8.31409C87.2913 8.11348 87.1738 7.91021 87.2017 7.69127C87.1001 7.77828 86.7531 7.79464 86.7274 7.7306L87.0386 7.68191C86.8522 7.65807 86.9138 7.75444 86.689 7.6947C86.7338 7.61043 87.0489 7.60423 87.1425 7.64445L87.0465 7.55468C87.1418 7.54186 87.1873 7.56018 87.3049 7.55122C87.1145 7.53087 87.6352 7.35422 87.308 7.32487L87.4033 7.31206C87.4312 7.09313 87.3352 7.00335 87.3432 6.83013C87.0777 6.85116 87.1433 6.7778 86.9361 6.74305C86.9989 6.66477 87.0659 6.59007 87.1368 6.51948C87.1879 6.46842 87.2276 6.40667 87.2518 6.34068C87.1222 6.3141 87.0279 6.33754 86.8729 6.32122C87.113 6.31044 87.1 6.26427 87.2676 6.29846C87.2054 6.21772 87.1319 6.14777 87.0488 6.09021C86.9732 6.07732 86.9002 6.05736 86.8306 6.03055C86.7978 5.9841 86.934 6.01079 87.0443 6.0654L87.0594 6.08683C86.8936 5.95362 87.0704 5.94549 87.2197 6.01833C87.3689 6.09118 87.4958 6.20615 87.2721 5.94478L87.2923 5.97335C87.2191 5.86974 87.1433 5.76256 87.06 5.64466C87.1021 5.64878 87.214 5.86261 87.3494 5.99893C87.1753 5.75241 87.1961 5.71732 87.226 5.7319C87.2558 5.74647 87.2815 5.81049 87.1914 5.57222C87.4871 6.06452 87.4754 6.05728 87.4438 5.9295C87.4123 5.80171 87.3564 5.64882 87.5423 6.06884L87.4154 5.74163C87.2886 5.4144 87.489 5.91952 87.5222 5.99427L87.3329 5.51407C87.3182 5.46759 87.3078 5.41891 87.3019 5.36859C87.3993 5.47904 87.4686 5.61494 87.5056 5.76765C87.5714 5.94478 87.6203 6.13133 87.6516 6.32506C87.6509 6.38872 87.4987 4.89027 87.6023 5.58152L87.6304 6.07361C87.621 5.78342 87.662 5.8229 87.6847 5.85506C87.7074 5.88721 87.7276 5.9158 87.7984 5.75761C87.7832 5.82258 87.7635 5.88734 87.7396 5.95135C87.6741 6.23695 87.7624 5.98349 87.8465 5.7795C87.8616 5.80093 87.7771 5.97663 87.7434 6.08582C87.7096 6.19501 87.9017 5.78381 87.7962 6.04057C87.7844 6.0722 87.7688 6.10292 87.7498 6.13189C87.8099 6.02308 87.7522 6.18145 87.9004 5.91114C87.8407 6.04827 88.006 5.82065 87.928 5.99643C88.1597 5.75206 87.9563 6.2303 88.2703 5.88096C87.9466 6.24431 88.1557 6.3003 88.3587 6.17227C88.245 6.26972 88.3026 6.3236 88.1492 6.46647C88.1921 6.52721 88.3265 6.48665 88.479 6.28716C88.2065 6.82456 89.0088 6.11419 88.5715 6.74125C88.8637 6.69546 89.1507 6.69948 89.4211 6.75316C89.0975 7.11651 89.2152 6.63708 88.892 7.02874C89.1707 7.00788 89.5275 6.76528 89.6034 6.99273C89.5956 7.07399 89.4409 7.13195 89.3759 7.18763C89.6546 7.16679 89.6305 7.4742 89.9322 7.39354C89.9038 7.42925 89.869 7.45908 89.8306 7.48055C89.8483 7.50557 89.843 7.59037 89.9828 7.419L89.9214 7.44292C90.0908 7.16584 90.464 7.02957 90.5799 6.90739C90.1182 7.34309 90.6015 7.14117 90.0049 7.68109C90.0915 7.63831 90.1693 7.57164 90.2283 7.48967C90.2266 7.5427 90.1783 7.61277 90.0433 7.717C90.2135 7.70878 90.3372 7.50535 90.4125 7.58422C90.3474 7.64879 90.2781 7.7082 90.2053 7.76173C90.3854 7.64752 90.5671 7.52626 90.5749 7.65726C90.5261 7.69903 90.4804 7.77266 90.4612 7.75471C90.6008 7.84156 91.0337 7.5222 91.0305 7.79453C90.6771 8.09733 90.9728 7.9529 90.7101 8.26404L90.8612 8.23787L90.9614 8.06594C91.0094 8.13383 91.2652 7.96054 91.2329 8.10866L91.0761 8.19137L91.2406 8.23966L91.2791 8.06332C91.4784 7.96707 91.6139 7.67891 91.6181 7.84169C91.5856 7.86954 91.666 7.90957 91.5505 8.10605C91.6672 8.04047 91.7854 7.96785 91.7659 8.08784C91.7463 8.20784 91.458 8.40897 91.3975 8.48947C91.6534 8.27021 91.601 8.556 91.8798 8.32291C91.7939 8.39745 91.7148 8.48065 91.6441 8.57076L91.8553 8.38978C91.8247 8.48501 91.7646 8.57306 91.6854 8.63855C91.7561 8.73859 91.9986 8.23261 91.9548 8.49376C91.9548 8.49376 91.9061 8.53552 91.8695 8.56685C91.8954 8.75116 92.184 8.62432 92.186 8.81184C91.9425 9.14094 92.0386 8.80622 91.8489 9.1007C92.0311 9.17402 92.4419 9.01706 92.5138 9.20201L92.5221 9.14907C92.9249 8.74085 92.4271 9.44841 92.6752 9.31039C92.6051 9.35468 92.5405 9.41005 92.4843 9.47398C92.5097 9.62998 92.7561 9.545 93.0105 9.54503L92.9008 9.639C92.8619 9.78704 92.9819 9.82764 92.9958 9.93042C93.1054 9.83644 93.1236 9.88975 93.2517 9.71115C92.8555 10.498 93.8951 9.69894 93.5605 10.3699C93.5454 10.3485 93.4312 10.4176 93.4439 10.4355L93.6657 10.4633C93.7431 10.3741 93.8073 10.2744 93.8554 10.1689C93.9691 10.0714 94.0878 10.0271 94.1196 10.0629C93.9477 10.1242 93.8484 10.3527 93.769 10.4896C93.8218 10.4443 93.8868 10.3886 93.9285 10.3185C93.6975 10.7114 94.2835 9.96263 94.1723 10.2759L94.0748 10.3594C94.1569 10.3464 94.3061 10.253 94.3186 10.3169C94.1377 10.5407 94.1903 10.3752 94.0343 10.5605C94.0746 10.6177 94.4884 10.2803 94.3596 10.5226C94.2795 10.5569 94.2502 10.5246 94.1726 10.5624C93.9919 10.8606 94.0569 10.8049 94.0598 10.8828L94.0456 11.0842L94.0853 10.9928C94.6581 10.502 94.3122 11.0278 94.7344 10.7578C94.3325 11.0104 94.5313 10.9318 94.3078 11.1692C94.2789 11.2629 94.2263 11.3516 94.1562 11.4253C94.381 11.2728 94.0821 11.6436 94.4039 11.4253C94.3267 11.4914 94.4418 11.4789 94.2503 11.6601C94.3613 11.6511 94.3657 11.5096 94.4607 11.4225C94.7904 11.2432 94.3524 11.9339 94.8105 11.6963C95.0503 11.6572 95.3133 11.4203 95.5317 11.388C95.4582 11.4988 95.3548 11.5873 95.2393 11.6386C95.1867 11.8041 95.2454 11.8227 95.3554 11.803C95.2808 11.8667 95.2175 11.9444 95.1704 12.0303C95.2291 12.0488 95.4628 11.7797 95.4036 11.9452C95.3005 12.042 95.1934 12.1338 95.0828 12.2201C95.1943 12.1934 95.3764 12.1004 95.4864 12.0807C95.3957 12.184 95.2856 12.2665 95.1666 12.3203C95.244 12.3315 95.3269 12.3222 95.4085 12.2932C95.4901 12.2642 95.5679 12.2163 95.6357 12.1536L95.676 12.0445C95.6911 12.0659 95.5093 12.2332 95.4611 12.2572C95.2572 12.3747 95.4655 12.1158 95.5351 12.039L95.6147 12.0224C96.0066 11.5433 95.4112 11.9559 95.3694 11.8598L95.7106 11.5674L95.3844 11.7609C95.4625 11.6367 95.5692 11.5314 95.6917 11.4575C95.7971 11.2467 95.5405 11.5297 95.6687 11.3051C95.6836 11.284 95.7034 11.267 95.7256 11.2563L95.5831 11.3039C95.6562 11.2412 95.796 11.0698 95.7781 11.1368C95.8685 10.8586 95.406 11.2377 95.6058 10.9575L95.6302 10.9366C95.4053 10.9229 95.3783 11.1524 95.0374 11.3528L95.536 10.7019L95.2883 10.9141C95.2756 10.8963 95.2758 10.8503 95.3682 10.7596C95.1683 10.8735 95.2777 10.8715 95.1001 10.9893C95.2498 10.712 94.8399 10.9255 95.1869 10.5307C94.996 10.6943 95.1109 10.7277 94.9284 10.7924C95.2841 10.3729 94.7875 10.7868 94.9138 10.541C95.1332 10.3531 95.0755 10.5114 95.2103 10.2869C94.8366 10.6071 95.1779 10.1025 95.0841 10.1083C94.8144 10.391 94.8728 10.123 94.7036 10.1419C94.8051 10.0548 94.7064 9.84122 94.7317 9.6647L94.7804 9.62294C94.4965 9.89487 94.4715 9.76718 94.3646 9.77275C94.456 9.65407 94.5707 9.55578 94.6977 9.48735L94.6548 9.42661C94.5918 9.49227 94.5114 9.53436 94.431 9.54375L94.6544 9.35233C94.5771 9.29818 94.2818 9.47091 94.3285 9.24163C94.138 9.43351 93.878 9.86851 93.6565 9.91492C93.7526 9.78934 93.8674 9.67929 93.9947 9.59069C93.9947 9.59069 93.8821 9.65277 93.9091 9.58948L94.1126 9.44377C94.1494 9.32047 93.9542 9.57951 93.9361 9.52619C94.0819 9.37259 94.0114 9.39282 94.1338 9.27073C94.1338 9.27073 94.1032 9.36582 94.1692 9.32076C94.1686 9.26439 94.1794 9.20597 94.2009 9.14909C94.2224 9.09221 94.2541 9.03807 94.2941 8.98999C94.2048 9.06657 94.0965 9.19946 94.0545 9.19533C94.0125 9.19121 94.206 8.98522 94.2387 8.86541C94.125 8.96286 94.1908 8.79752 93.9673 9.03492C93.9496 9.00992 94.0426 8.90156 94.095 8.828C93.9636 8.90044 93.9028 8.69444 93.7105 8.98535C93.3839 9.10457 93.5889 8.61928 93.3837 8.60579L93.4609 8.53966C93.3114 8.55878 93.261 8.44135 93.0555 8.56581C93.0379 8.54079 93.1366 8.37592 93.2315 8.28882C93.1246 8.2944 93.0403 8.37811 93.0783 8.17347C93.2589 8.08757 93.1709 8.03682 93.2274 8.12604C93.2171 7.99147 93.3178 7.84785 93.0484 7.99264C93.2556 7.81514 93.2265 7.69093 93.1372 7.72151L93.0562 7.9114C93.0326 7.90232 93.0128 7.88689 92.9983 7.86638C92.9838 7.84587 92.9751 7.82088 92.9729 7.79349L93.2324 7.54244C93.381 7.08819 92.4783 7.85022 92.8569 7.20466C92.6619 7.37171 92.8189 7.40929 92.5864 7.59704C92.5552 7.49756 92.8436 7.0382 92.8285 7.01678C92.8701 6.78035 92.3945 7.32552 92.3925 7.138C92.3167 7.24306 92.1002 7.50886 91.9457 7.52084C91.8901 7.44224 92.2215 7.04364 92.332 7.00628C92.3446 7.02414 92.3319 7.05225 92.3019 7.08366C92.3414 7.07785 92.3807 7.0592 92.4143 7.03043C92.4479 7.00166 92.474 6.96423 92.4888 6.92357L92.3913 7.0071C92.4453 6.88051 92.3462 6.80483 92.5046 6.6691C92.4582 6.68191 92.4146 6.71259 92.3833 6.7545C92.3519 6.79642 92.3352 6.84622 92.3369 6.89314C92.378 6.6744 92.2106 6.76047 92.2054 6.58707C92.1703 6.65733 92.0849 6.7764 92.0707 6.7656C92.0465 6.52825 91.8546 6.89345 91.7305 6.85634C91.8091 6.66288 92.0571 6.52487 91.8595 6.56808C91.8894 6.49892 91.9322 6.43415 91.9849 6.37815C92.0375 6.32214 92.0989 6.27619 92.1648 6.24338C91.9228 6.35318 92.1229 5.98103 92.1028 5.90646L92.2134 5.8691C92.1937 5.87792 92.1732 5.88079 92.1545 5.87737C92.1358 5.87396 92.1198 5.8644 92.1085 5.84995L91.9661 6.06372C91.9678 6.01068 91.9461 5.98915 92.0197 5.90882C91.8897 6.0202 91.7574 6.24827 91.556 6.36926C91.61 6.24267 91.3644 6.38426 91.5744 6.11836C91.6043 6.29918 91.7884 5.84897 91.9149 5.88966C91.8784 5.92099 91.849 5.88874 91.8644 5.81821C91.8814 5.79174 91.906 5.77069 91.9335 5.75904C92.0331 5.43853 91.641 6.00964 91.5349 5.90556C91.6811 5.78027 91.751 5.61144 91.7084 5.625C91.7412 5.67144 91.5172 5.88054 91.3818 5.95647C91.4121 5.7871 91.2348 5.97917 91.2126 5.92934L91.2058 6.02121C91.0596 6.1465 91.049 6.10391 90.9659 6.10628C91.0605 5.99088 91.074 6.06535 91.0959 5.9949C90.8319 6.22113 91.2088 5.6286 90.9841 5.7351C91.0382 5.60851 91.2194 5.45896 91.246 5.36736C91.0066 5.48073 91.3323 5.09265 91.1097 5.17442C91.0771 5.24371 91.0309 5.30749 90.9745 5.36072C90.9182 5.41396 90.8534 5.45519 90.7852 5.48115L91.0451 5.47066L90.7107 5.67114C90.7435 5.71759 90.9043 5.6314 90.9027 5.68444C90.8486 5.70902 90.7977 5.74443 90.7534 5.78831C90.7091 5.83221 90.6724 5.88359 90.6457 5.93906C90.8421 5.5987 90.3866 6.00619 90.5043 5.73899L90.8449 5.29805C90.9308 4.99503 90.452 5.38806 90.4253 5.14714L90.3951 5.27052C90.2042 5.43409 90.2924 5.22662 90.1818 5.26399C90.2764 5.15708 90.3551 5.03719 90.4143 4.90997C90.3182 5.03243 90.3411 4.80636 90.0398 5.12757L90.1641 4.86047C90.1301 4.68313 89.647 5.21757 89.5921 5.07531C89.7708 4.92216 89.8269 4.77083 89.9983 4.72725C89.9731 4.69153 89.9453 4.65224 89.8645 4.75014C89.9327 4.63437 89.5835 4.8877 89.6827 4.70515C89.6096 4.7678 89.4623 4.92845 89.436 4.88209C89.4597 4.85733 89.4856 4.83512 89.5132 4.81596C89.4361 4.88208 89.3586 4.87392 89.24 5.0845C89.5567 4.48051 88.939 4.88927 89.13 4.3012C88.9858 4.27102 88.8489 4.22282 88.7221 4.15751C88.7667 4.11923 88.7699 4.05914 88.787 4.10183C88.7306 3.80035 88.4544 4.62776 88.4157 4.30531C88.4654 3.89567 88.5578 4.18352 88.5593 4.0102C88.6773 3.65103 88.616 3.62894 88.5339 3.64194C88.4518 3.65494 88.362 3.7032 88.3774 3.42043L88.4099 3.39259C88.3743 3.05604 88.1385 3.51614 88.0316 3.35544C88.0383 3.31386 88.0418 3.27249 88.042 3.23178C87.9008 3.57646 87.7548 3.60979 87.6737 3.6334C87.708 3.45438 87.7167 3.2768 87.6993 3.1067C87.6451 3.11302 87.6999 3.67976 87.6349 3.73546C87.5676 3.44987 87.5156 3.15749 87.4791 2.85952L87.5863 2.92824C87.5011 2.3646 87.4432 2.82719 87.3802 2.69188L87.3676 2.46178C87.192 2.38856 87.2756 3.00525 87.1124 2.82962L87.16 3.03546C87.1849 3.58764 87.0202 2.61607 87.0298 3.02654L86.7768 2.30845C86.7406 2.41406 86.7143 2.79219 86.665 2.85163C86.606 2.58472 86.6038 2.29581 86.6585 2.00257C86.6055 1.92755 86.4416 1.86157 86.5025 2.18786C86.5108 2.13491 86.4954 1.9932 86.5635 2.13565C86.621 2.61401 86.6235 2.82983 86.5234 2.74353C86.4328 2.25841 86.216 1.83386 85.8938 1.51075C85.8014 1.41535 85.7317 1.29789 85.6885 1.16474C85.7689 1.62926 85.7311 1.74194 85.665 1.83298C85.6099 1.8935 85.5662 1.96362 85.5374 2.03799C85.5086 2.11236 85.4954 2.18905 85.4987 2.26222C85.9791 2.99767 85.4978 2.41784 85.9769 3.28062C85.9988 3.42242 85.9892 3.43643 85.9563 3.38998C85.8569 3.30695 85.7489 3.23446 85.6337 3.17322C85.4856 3.01904 85.5366 2.90655 85.4286 2.73524C85.3638 2.9112 85.2093 2.4987 85.0625 2.4754C85.2341 2.71836 85.3034 2.94572 85.2217 2.98703C85.3022 3.02707 85.3877 3.07426 85.4691 3.12492C85.5832 3.48027 85.474 3.3903 85.3602 3.32149C85.2464 3.25268 85.132 3.20155 85.2467 3.53922L85.0995 3.2294C85.0764 3.69626 85.1875 4.12973 85.4191 4.47551C85.3135 4.43816 85.2292 4.36403 85.1779 4.26342C85.157 4.53453 85.1902 4.79508 85.2753 5.02886C85.3435 5.29159 85.3977 5.49752 85.2353 5.59075L85.0968 5.46854C85.1295 5.56097 85.3354 5.67706 85.1889 5.72806C85.1367 5.70964 85.0578 5.66254 85.0435 5.69772C85.0293 5.73289 85.2638 5.94489 85.1704 6.02494L85.0288 5.91683C84.7968 6.29915 85.329 6.60023 85.4198 6.72885C85.3022 6.72448 85.1787 6.75413 85.062 6.81471C84.9454 6.87529 84.84 6.96458 84.7568 7.07329L84.696 7.07951C84.6112 7.34717 84.9888 7.49395 85.1402 7.70833C84.6675 7.90685 84.8753 8.25645 84.6011 8.51437C84.7281 8.47561 84.8549 8.47987 84.9618 8.5265C84.8765 8.59959 85.233 8.66119 84.8514 8.68415C84.4748 8.76021 84.5571 8.86749 84.5306 8.95909L85.0322 8.93076C84.2755 9.23496 85.2201 9.53829 84.5514 9.72699C84.6698 9.77464 84.6448 9.85919 84.7729 9.89282L84.5073 9.91386C84.4581 9.98167 84.4235 10.0578 84.4066 10.1353C84.3897 10.2129 84.391 10.2894 84.4104 10.3582L84.224 10.3344C84.1929 10.4471 84.9808 10.4087 84.9937 10.5008L84.5897 10.5659C84.5705 10.7602 84.1905 10.9883 84.5279 11.1522C84.4712 11.155 84.3552 11.1569 84.3416 11.1284C84.3216 11.2201 84.024 11.5095 84.5637 11.4428C84.2029 11.4767 84.4993 11.6471 84.644 11.7411L84.3815 11.748C84.7051 11.8091 84.7988 11.8034 84.8654 11.9069C84.8248 11.9417 84.6505 11.9534 84.7231 11.9085C84.5809 12.0303 84.9626 11.9613 84.8042 12.0971L84.6431 12.063C84.6069 12.1686 84.7037 12.1487 84.8895 12.1902C84.9826 12.2481 84.7963 12.3906 84.5541 12.4261C84.699 12.4281 84.8848 12.4696 84.8117 12.5323C84.751 12.5432 84.6919 12.5387 84.6394 12.5192C84.4323 12.6967 84.9089 12.753 84.6319 12.887C84.5793 12.8895 84.5256 12.9007 84.4727 12.9202C84.4994 12.7826 84.5266 12.6733 84.5473 12.6842C84.3031 12.6985 84.2455 12.8109 83.9342 12.7393C84.1057 12.816 84.4828 12.9345 84.3554 13.0494L84.2651 13.0694L84.2525 13.0515C84.22 13.0794 84.2418 13.1009 84.2929 13.1087C84.3441 13.1165 84.2198 13.1713 84.1995 13.1887C83.9958 13.2142 84.0614 13.3071 84.0566 13.3742C84.3222 13.3532 84.2698 13.4267 84.499 13.345C84.499 13.345 84.4839 13.3236 84.4662 13.2986C84.462 13.2889 84.456 13.2804 84.4485 13.2736C84.4453 13.2297 84.4463 13.1847 84.4514 13.1392C84.5795 13.1728 84.6863 13.2132 84.5448 13.2714L84.9611 13.3162C84.5824 13.417 84.3601 13.573 84.127 13.6122C84.2431 13.7765 84.169 13.9948 84.6557 14.0653C84.6961 14.1225 84.5036 14.1269 84.4225 14.1505C84.3413 14.1741 84.3846 14.0969 84.3178 14.0853C84.431 14.1718 84.3302 14.3614 84.6717 14.3556C84.5052 14.4983 84.3607 14.3123 84.3953 14.472L84.293 14.4564C83.6861 14.8158 85.0984 14.9134 84.3343 15.3272C84.3748 15.2977 84.4201 15.2787 84.4652 15.2724C84.1069 15.6884 84.6358 16.0955 84.0591 16.5438C83.9332 16.6516 84.15 16.6724 84.3211 16.7208L84.0312 16.7627L84.343 16.8626C84.5569 17.0177 83.6 17.1953 84.021 17.3851L84.2146 17.3454C84.1673 17.4261 84.2915 17.5835 84.0742 17.5804C84.0893 17.6019 84.2687 17.5973 84.1622 17.6312L84.0143 17.6433L84.2408 17.8162C84.1081 17.97 83.6541 17.8257 83.5907 18.0406C83.7257 18.1454 83.8969 18.1982 84.0828 18.1925C84.1031 18.1751 84.1843 18.1055 84.3389 18.0935L84.3944 18.1721C84.7782 18.2181 85.187 18.1644 85.5879 18.0155L85.3409 17.906L85.5574 17.8524L85.5581 17.955C85.7645 17.8871 85.5928 17.8564 85.4698 17.8299C85.5519 17.8219 85.635 17.7991 85.7157 17.7626L85.3142 17.665C85.4875 17.6427 85.6465 17.7015 85.7546 17.6146C85.5703 17.566 85.3582 17.6904 85.249 17.6005C85.4554 17.5326 85.616 17.5384 85.457 17.4796C85.5377 17.4616 85.6166 17.4676 85.6845 17.4969C85.561 17.4421 85.654 17.3338 85.4265 17.3164C85.6806 17.2422 85.3921 17.1108 85.8091 17.0918C85.7134 17.0764 85.4983 17.0026 85.4908 16.9459C85.9735 17.0199 85.5517 16.7274 86.0841 16.7243C85.6455 16.6757 85.9278 16.4568 85.6971 16.3333C85.7147 16.3583 85.8019 16.3524 85.7766 16.3627C85.8264 16.2856 85.9658 16.2521 86.0571 16.1968C85.8314 16.2027 85.6159 16.1636 85.4216 16.0818C85.7943 15.9632 85.8476 16.1125 86.1958 16.0608C85.8933 16.0849 85.9236 15.9155 85.6591 15.9472C85.7982 15.8785 85.9431 15.8361 86.086 15.8223C85.6229 15.8405 86.033 15.7472 85.7427 15.7149C85.9862 15.598 86.1806 15.6609 86.0547 15.5565C86.1128 15.5378 86.1714 15.5311 86.2269 15.5368C86.2825 15.5424 86.3338 15.5603 86.3779 15.5894ZM86.0115 12.68C85.994 12.7115 85.9843 12.7456 85.9834 12.7787C85.8906 12.795 85.7984 12.7937 85.8071 12.7691C85.8157 12.7445 85.9222 12.7106 86.0064 12.6729L86.0115 12.68ZM84.0989 13.2864C84.0737 13.2506 84.1229 13.2372 84.172 13.2237C84.1821 13.2418 84.1939 13.2586 84.2074 13.2737L84.2277 13.2563L84.0989 13.2864Z" fill="#81A2B2" fill-opacity="0.5"/>
<path d="M84.432 13.3334C84.432 13.3334 84.432 13.3334 84.4446 13.3512L84.5101 13.3238L84.426 13.3156L84.432 13.3334Z" fill="#81A2B2" fill-opacity="0.5"/>
<path d="M86.9383 9.45975L86.8709 9.46588L86.9271 9.4808L86.9383 9.45975Z" fill="#81A2B2" fill-opacity="0.5"/>
<path d="M94.0305 10.8506L94.0028 10.9776C94.0171 10.9355 94.0264 10.8928 94.0305 10.8506Z" fill="#81A2B2" fill-opacity="0.5"/>
<path d="M89.7907 7.4978C89.74 7.51831 89.7055 7.5249 89.7907 7.4978V7.4978Z" fill="#81A2B2" fill-opacity="0.5"/>
<path d="M91.5318 8.11647C91.4873 8.14499 91.4411 8.16923 91.3938 8.18881C91.3897 8.23828 91.4048 8.25972 91.5318 8.11647Z" fill="#81A2B2" fill-opacity="0.5"/>
<path d="M91.328 8.14191C91.3076 8.2053 91.339 8.21281 91.3734 8.20622C91.4079 8.19963 91.3787 8.12139 91.328 8.14191Z" fill="#81A2B2" fill-opacity="0.5"/>
<path d="M95.3381 12.3971L95.257 12.4207C95.257 12.4207 95.2569 12.4667 95.3381 12.3971Z" fill="#81A2B2" fill-opacity="0.5"/>
<path d="M94.822 11.9157C94.8422 11.9443 94.7185 12.1477 94.8007 12.1347L94.8697 12.0755C94.7362 12.1727 94.9717 11.8046 94.822 11.9157Z" fill="#81A2B2" fill-opacity="0.5"/>
<path d="M95.3304 10.4938L95.3573 10.6428C95.4225 10.5411 95.511 10.4079 95.5697 10.4264C95.6983 10.0639 95.41 10.6435 95.3304 10.4938Z" fill="#81A2B2" fill-opacity="0.5"/>
<path d="M95.1793 10.0953C95.2634 10.1036 95.3053 9.98743 95.3414 9.92781C95.2384 9.97588 95.2131 9.98615 95.1793 10.0953Z" fill="#81A2B2" fill-opacity="0.5"/>
<path d="M93.2121 8.15075L93.4042 7.95181C93.3586 7.93348 93.3305 8.03213 93.2121 8.15075Z" fill="#81A2B2" fill-opacity="0.5"/>
<path d="M91.8778 8.84632L91.7963 9.0079L91.9822 8.83717L91.8778 8.84632Z" fill="#81A2B2" fill-opacity="0.5"/>
<path d="M92.9633 7.17065L93.0084 7.16067L92.8802 7.17302L92.9633 7.17065Z" fill="#81A2B2" fill-opacity="0.5"/>
<path d="M89.4143 4.10369L89.221 4.38398C89.2965 4.3709 89.5632 4.10225 89.4143 4.10369Z" fill="#81A2B2" fill-opacity="0.5"/>
<path d="M86.9927 2.53089C86.926 2.2611 86.8238 2.03327 86.811 2.27365C86.8934 2.33493 86.9713 2.58365 86.9927 2.53089Z" fill="#81A2B2" fill-opacity="0.5"/>
<path d="M84.6209 9.05921L84.5272 9.01898L84.5984 9.10135L84.6209 9.05921Z" fill="#81A2B2" fill-opacity="0.5"/>
</svg>
