<svg width="32" height="32" viewBox="0 0 32 32" fill="none" xmlns="http://www.w3.org/2000/svg">
<path fill-rule="evenodd" clip-rule="evenodd" d="M21.0661 8.5443C17.6461 5.09532 12.0779 5.17446 8.62955 8.65211C5.18116 12.1298 5.10269 17.7452 8.52265 21.1942C11.6198 24.3176 16.4787 24.5475 19.9295 21.9803L23.4837 25.5646C24.0593 26.1451 24.9926 26.1451 25.5682 25.5646C26.1438 24.9841 26.1438 24.0429 25.5682 23.4624L21.9863 19.8501C24.3816 16.3841 24.1049 11.6089 21.0661 8.5443ZM10.2694 10.3059C12.8429 7.71062 16.9424 7.69323 19.4262 10.1981C21.91 12.703 21.8927 16.8372 19.3193 19.4325C16.7458 22.0278 12.6464 22.0452 10.1625 19.5403C7.67874 17.0355 7.69599 12.9012 10.2694 10.3059Z" fill="#81A2B2"/>
</svg>
