<svg width="32" height="32" viewBox="0 0 32 32" fill="none" xmlns="http://www.w3.org/2000/svg">
<path fill-rule="evenodd" clip-rule="evenodd" d="M25 14C25 18.9706 20.9706 23 16 23C11.0294 23 7 18.9706 7 14C7 9.02944 11.0294 5 16 5C20.9706 5 25 9.02944 25 14ZM23 14C23 17.866 19.866 21 16 21C12.134 21 9 17.866 9 14C9 10.134 12.134 7 16 7C19.866 7 23 10.134 23 14ZM16 20C19.3137 20 22 17.3137 22 14C22 10.6863 19.3137 8 16 8C12.6863 8 10 10.6863 10 14C10 17.3137 12.6863 20 16 20ZM15.5 11C15.2239 11 15 11.2239 15 11.5V13C15 13.5523 14.5523 14 14 14V14C13.588 14 13.3528 14.4704 13.6 14.8L15.0965 16.7954L15.103 16.804L15.6 17.4667C15.8 17.7333 16.2 17.7333 16.4 17.4667L16.897 16.804L16.9035 16.7953L18.4 14.8C18.6472 14.4704 18.412 14 18 14V14C17.4477 14 17 13.5523 17 13V11.5C17 11.2239 16.7761 11 16.5 11H15.5ZM7.5 25C7.22386 25 7 25.2239 7 25.5V26.5C7 26.7761 7.22386 27 7.5 27H24.5C24.7761 27 25 26.7761 25 26.5V25.5C25 25.2239 24.7761 25 24.5 25H7.5Z" fill="#81A2B2"/>
</svg>
