<svg width="208" height="200" viewBox="0 0 208 200" fill="none" xmlns="http://www.w3.org/2000/svg">
<path d="M42.5809 199.905C42.4327 199.981 42.2133 199.878 42.3384 199.561L42.8129 199.417L42.5809 199.905Z" fill="#81A2B2" fill-opacity="0.5"/>
<path d="M42.3754 197.493C42.6666 197.148 43.1267 196.78 43.4466 197.12C42.9569 197.416 43.102 197.543 42.5264 197.855C42.4013 198.172 42.5226 198.463 42.6887 198.435C42.5404 198.511 42.6553 198.972 42.3498 199.093C42.2423 198.828 42.2125 198.537 42.2638 198.255C42.315 197.973 42.4453 197.712 42.6395 197.501C42.595 197.387 42.4585 197.486 42.3754 197.493Z" fill="#81A2B2" fill-opacity="0.5"/>
<path d="M50.6651 165.219L50.6421 165.44C50.638 165.365 50.6458 165.291 50.6651 165.219Z" fill="#81A2B2" fill-opacity="0.5"/>
<path d="M57.5246 145.696C57.4547 145.84 57.3922 145.887 57.3519 145.879C57.4307 145.751 57.5011 145.65 57.5246 145.696Z" fill="#81A2B2" fill-opacity="0.5"/>
<path d="M58.3962 142.237L58.3413 142.439C58.3487 142.341 58.3193 142.284 58.3962 142.237Z" fill="#81A2B2" fill-opacity="0.5"/>
<path d="M50.6651 165.219L50.7125 164.653C50.8732 164.657 50.7363 164.951 50.6651 165.219Z" fill="#81A2B2" fill-opacity="0.5"/>
<path d="M44.4453 193.264C44.4035 193.363 44.3423 193.454 44.2651 193.53C44.3071 193.443 44.3403 193.354 44.3736 193.265C44.3974 193.269 44.4217 193.268 44.4453 193.264Z" fill="#81A2B2" fill-opacity="0.5"/>
<path d="M47.5696 173.794L47.5229 173.955C47.4628 173.997 47.3977 174.03 47.329 174.055L47.5696 173.794Z" fill="#81A2B2" fill-opacity="0.5"/>
<path d="M45.5658 180.514C45.5982 180.353 45.9603 180.397 46.1265 180.383C46.0554 180.401 45.9889 180.434 45.9316 180.48C45.8743 180.526 45.8274 180.583 45.7942 180.649C45.7088 180.622 45.6307 180.576 45.5658 180.514Z" fill="#81A2B2" fill-opacity="0.5"/>
<path d="M43.3914 191.406L43.2961 191.585C43.3247 191.523 43.3565 191.463 43.3914 191.406Z" fill="#81A2B2" fill-opacity="0.5"/>
<path d="M48.9913 168.969C48.9481 168.947 48.9126 168.913 48.8896 168.87C48.9349 168.889 48.9713 168.924 48.9913 168.969Z" fill="#81A2B2" fill-opacity="0.5"/>
<path d="M158.33 10.4213L158.3 10.3644C158.346 10.3695 158.375 10.3835 158.33 10.4213Z" fill="#81A2B2" fill-opacity="0.5"/>
<path d="M163.408 3.86679L163.311 3.91684C163.259 3.87415 163.21 3.82682 163.166 3.77542L163.408 3.86679Z" fill="#81A2B2" fill-opacity="0.5"/>
<path d="M60.5474 136.112C60.4824 136.196 60.4319 136.28 60.5474 136.112Z" fill="#81A2B2" fill-opacity="0.5"/>
<path d="M88.9644 83.927C88.8765 84.6938 89.9082 83.2376 89.6576 84.2905C89.5866 84.1251 88.6792 84.7452 88.9644 83.927Z" fill="#81A2B2" fill-opacity="0.5"/>
<path d="M44.4424 193.078L44.5106 192.804C44.4973 192.897 44.4745 192.989 44.4424 193.078Z" fill="#81A2B2" fill-opacity="0.5"/>
<path d="M66.9527 122.646C66.9994 122.702 67.0335 122.768 67.0527 122.839C67.0527 122.839 67.0116 122.759 66.9527 122.646Z" fill="#81A2B2" fill-opacity="0.5"/>
<path d="M62.7218 132.911L62.79 132.638C62.7796 132.732 62.7566 132.823 62.7218 132.911Z" fill="#81A2B2" fill-opacity="0.5"/>
<path d="M69.9485 117.664C69.9897 117.52 69.9601 117.449 70.0959 117.292C70.1092 117.312 70.12 117.333 70.1282 117.355C70.0743 117.387 70.0294 117.432 69.998 117.486C69.9665 117.54 69.9495 117.602 69.9485 117.664Z" fill="#81A2B2" fill-opacity="0.5"/>
<path d="M72.7386 112.356C72.7469 112.399 72.7523 112.442 72.7546 112.485L72.6476 112.642L72.7386 112.356Z" fill="#81A2B2" fill-opacity="0.5"/>
<path d="M144.639 22.2536C144.661 22.1151 144.654 21.9738 144.62 21.838C144.726 22.0861 145.454 21.5516 144.639 22.2536Z" fill="#81A2B2" fill-opacity="0.5"/>
<path d="M44.2465 193.215C44.2886 193.212 44.3292 193.198 44.3638 193.174C44.3984 193.149 44.4254 193.116 44.4424 193.078L44.3736 193.265C44.3045 193.243 44.27 193.26 44.2465 193.215Z" fill="#81A2B2" fill-opacity="0.5"/>
<path d="M72.6019 118.747L72.952 117.845C72.8524 118.152 72.7355 118.453 72.6019 118.747Z" fill="#81A2B2" fill-opacity="0.5"/>
<path d="M115.271 53.286L115.447 53.1517C115.407 53.2172 115.344 53.2652 115.271 53.286Z" fill="#81A2B2" fill-opacity="0.5"/>
<path d="M74.3269 115.403C74.2983 115.21 74.3094 115.012 74.3597 114.823C74.3985 114.792 74.4431 114.769 74.4909 114.756L74.3269 115.403Z" fill="#81A2B2" fill-opacity="0.5"/>
<path d="M149.81 18.2699C149.152 18.8838 149.19 18.2151 148.862 18.1392C147.977 18.7619 148.729 18.7346 148.622 19.1576C148.041 19.5152 147.376 19.5414 147.011 19.8961C147.049 19.9702 146.981 20.0629 147.102 20.0727C146.318 20.2754 145.527 21.4847 144.595 21.6922C144.576 21.7433 144.577 21.7993 144.597 21.8499C144.544 21.6357 144.423 21.4448 144.251 21.3068C143.947 21.5719 143.492 21.5981 143.588 21.9237C143.766 21.7521 143.87 21.8281 144.025 21.8203L143.626 22.0264C143.645 22.6083 144.162 21.7496 144.386 21.9875C143.674 22.4415 142.721 22.8472 142.326 23.34C142.532 23.7387 143.52 22.4494 143.163 23.2972L143.773 22.5205C143.691 23.5224 144.181 22.0792 144.17 23.0801C143.313 24.0494 142.941 23.8737 142.11 24.8656C141.737 24.8993 141.939 24.5353 141.561 24.5719C139.955 25.5455 141.294 26.3763 139.941 26.9021C139.491 26.9397 139.02 26.6564 138.537 27.526L139.112 27.6473C138.255 28.5593 138.108 27.6465 137.411 28.8C137.709 28.776 138.222 28.23 138.141 28.4232C137.82 29.3107 137.533 28.6436 137.051 29.1089L137.26 29.5132C136.272 30.3983 135.009 31.2096 133.908 32.1965C134.055 32.2289 134.329 32.1449 134.184 32.4795C133.43 33.0913 132.735 33.7717 132.107 34.5119C131.48 35.2688 130.925 36.082 130.415 36.8287L129.675 37.0738C129.57 37.1928 129.602 37.4074 129.801 37.3187C129.402 37.9435 129.599 37.1781 129.265 37.3288C128.979 37.5993 129.068 37.8562 129.316 37.7496C128.232 38.4467 126.434 39.8588 125.847 41.0854L126.092 40.9588C125.523 41.8009 124.747 41.278 124.372 42.2007L124.543 42.1123C123.859 42.9703 123.04 43.79 122.299 44.5914C121.602 45.3059 121.036 46.1377 120.629 47.0485C120.013 46.9334 119.401 48.8658 118.744 48.476C118.217 49.6789 118.548 49.4938 117.6 51.0006C117.321 51.3828 116.788 51.2323 116.357 51.6424L116.653 51.908L115.823 52.2432L115.914 52.8671L115.482 53.2199C115.603 53.0347 115.646 52.7531 115.533 52.703C114.843 53.2399 114.399 54.4646 114.547 54.6118L112.98 55.9404C113.13 56.0072 113.389 55.7801 113.642 55.6419C112.634 56.2061 113.851 56.0463 112.917 56.5722C112.929 56.4143 112.689 56.4806 112.614 56.4472C112.285 57.1954 111.802 57.8656 111.196 58.4134L111.5 58.458C110.638 59.6826 109.465 60.8655 108.443 62.2012C108.712 61.6441 108.25 61.4639 107.916 61.824L108.099 62.1771C107.698 62.2685 108.293 61.6727 107.637 61.9969C107.294 62.5206 107.757 62.6204 108.087 62.421L107.5 62.9336C107.562 63.0532 107.735 62.9419 107.891 63.0058C107.491 63.0972 107.411 64.2998 106.781 64.3799L106.84 64.4938C105.815 65.8238 105.228 66.3364 104.372 67.4061C104.068 67.2094 103.802 67.7005 103.319 67.8274C102.849 68.8441 102.302 69.8235 101.683 70.7572C101.042 71.3479 101.29 70.7796 100.897 70.9685C101.124 71.212 100.396 72.1796 100.953 71.805C100.214 72.7995 99.4077 73.7417 98.5387 74.6248C98.5442 74.3838 98.6276 74.1676 98.4644 74.2014C98.2265 74.4397 98.1376 74.8969 98.2931 74.9464L98.3787 74.9022C96.7783 76.3059 96.3832 79.3164 94.9009 80.3056L94.9864 80.2615L93.7654 81.4909C93.3953 82.1726 94.2329 81.2494 94.0796 81.8336C92.6177 83.072 92.5589 84.3144 91.4217 85.3707C91.5929 86.8767 89.0927 88.8173 88.7579 90.4764L88.612 90.2776C88.1958 90.4925 88.4488 90.7587 88.3347 91.0412C88.204 90.9139 88.3975 90.5615 88.1612 90.7052C87.1028 92.1292 86.1999 93.6622 85.4677 95.2779C84.6734 96.9002 83.9284 98.5619 83.0959 100.11C82.4878 101.254 81.6616 100.129 81.3388 101.826L81.9589 101.628C81.1031 102.654 80.3557 103.765 79.7286 104.944C79.1554 106.129 78.4785 107.261 77.7057 108.327C77.8653 108.244 77.9778 108.294 78.0956 108.075C78.1093 108.702 77.1626 109.848 76.9374 109.733C76.7727 110.1 77.0948 109.926 77.0868 110.204C76.9935 110.765 76.0926 111.216 76.2267 111.615C76.2591 111.678 76.3921 111.53 76.4599 111.452C76.1589 111.694 75.7097 112.921 75.5404 112.468C75.2307 113.392 74.5271 114.016 74.3504 114.792C73.7598 115.047 73.7416 116.326 73.1691 116.21C73.7169 116.418 72.7717 117.902 72.2838 118.341C72.5175 118.221 72.2162 118.896 72.522 118.803C72.2143 119.423 71.8393 119.942 71.6297 119.704C71.6684 121.177 70.0032 121.77 70.4899 122.81C69.3066 124.532 68.2858 126.163 67.3509 127.779C67.9069 127.961 68.3004 125.954 68.8183 126.3C67.8358 127.781 66.9409 128.481 66.3046 130.116C66.1839 130.553 66.6501 129.988 66.7892 129.865C66.33 130.587 65.9437 131.352 65.636 132.149C65.3442 132.901 64.9755 133.621 64.5357 134.297C64.5876 134.314 64.7182 134.203 64.8081 134.056C64.6711 134.336 64.6046 134.752 64.3733 134.612L64.5567 134.366C64.388 133.732 63.3388 135.168 63.1143 135.111C64.013 134.935 62.6742 136.608 63.8773 136.225C63.7561 136.396 63.5404 136.579 63.3984 136.472C63.3276 136.768 63.3809 136.9 63.6882 136.698C63.1121 137.652 63.0144 137.183 62.6244 138.105C62.7426 138.153 62.8638 137.982 63.0413 137.948C62.5133 138.357 62.1386 138.932 61.9774 139.579C62.0516 139.541 62.1223 139.692 62.2169 139.456C61.6053 140.775 60.6186 141.479 60.2109 143.039C60.9053 142.817 60.1578 143.607 60.5714 143.862C60.408 144.106 60.262 144.354 60.116 144.603L60.0219 144.197C59.7639 144.9 59.1964 145.395 59.113 146.059L59.5003 145.606L58.9055 146.887L59.0389 146.097C58.5361 146.717 58.5014 145.797 58.2672 146.784C58.3884 146.613 58.0036 147.49 58.1471 147.95C57.8136 148.244 57.5842 148.639 57.4929 149.074C57.5899 149.262 58.0276 149.159 58.0923 149.284C57.587 149.48 57.3552 150.891 56.7907 151.168C56.8553 151.127 56.9318 151.109 57.0079 151.117C57.0841 151.125 57.1553 151.158 57.2101 151.211L56.7934 151.383C56.7636 151.745 56.7959 151.808 57.0199 151.822C56.6969 152.818 56.5889 151.323 56.3692 152.548C56.4284 152.466 56.449 152.506 56.5791 152.353C56.2617 153.57 55.5365 154.529 55.2583 155.668C55.5914 156.145 55.726 154.77 55.9823 155.294C55.6504 156.05 55.2009 156.801 54.7887 157.555C54.3803 158.292 54.0562 159.071 53.8226 159.88L53.8675 159.575C53.1415 159.568 53.7916 160.826 53.249 161.482C53.3559 161.311 53.6835 161.358 53.5949 161.383C53.3504 162.461 52.7289 163.453 51.9935 164.966L52.2329 164.842C52.0735 165.629 51.8726 166.407 51.6313 167.173C51.3918 167.296 51.3052 167.702 51.1524 167.42C51.4347 169.771 49.2916 171.144 49.5936 173.239C49.6569 173.026 49.8889 172.762 49.8423 172.938L49.2332 174.457C48.9867 174.245 49.1038 174.206 48.9983 173.806C48.7077 174.048 48.5002 174.375 48.4048 174.741C48.7925 174.093 48.8571 174.889 48.9275 175.235C48.8519 175.159 48.7324 175.235 48.6485 175.185C48.9161 176.15 48.0399 175.153 48.0553 176.371L48.2216 176.358C47.9641 176.697 47.7563 177.072 47.6045 177.47C47.8806 177.753 47.8806 177.068 48.1481 177.124C47.9524 177.752 47.1689 178.193 47.3353 178.864C47.4986 178.621 47.6171 178.235 47.7804 177.992C47.9286 178.397 47.9363 178.841 47.8021 179.251L47.7815 179.211L47.6408 180.337L47.614 180.033C46.5309 180.593 46.9827 181.607 46.122 182.514C46.9542 181.622 46.4824 182.429 46.8844 182.452C46.9083 182.75 46.9025 183.2 47.036 183.095C46.5909 183.52 47.0331 183.998 46.3694 184.601C46.4821 184.665 46.2299 185.142 46.5681 185.111C46.2777 185.738 46.399 184.896 46.23 184.918C45.5068 185.811 46.1386 187.44 45.2028 188.76C44.6644 189.969 44.1984 190.101 43.7105 191.226C43.8109 191.672 44.2271 191.01 44.2271 191.01C44.2711 191.609 44.1487 192.209 43.8732 192.744C44.0215 192.667 44.0718 192.793 44.1606 193.007C44.0118 193.488 43.6384 193.226 43.6671 193.911C43.8902 193.828 44.0951 193.702 44.2707 193.541C44.0251 194.087 43.6527 194.582 43.4104 195.162C43.5823 195.369 43.8143 194.881 44.0043 194.704C43.7484 195.341 43.42 196.369 43.0143 196.506L42.9971 196.053C42.9198 196.295 43.2549 196.245 43.356 196.077C43.7599 195.573 43.44 195.233 43.3216 195.172L43.1459 195.573C42.5329 194.973 43.6671 193.911 43.8313 193.054L43.2288 193.286L43.8676 192.523C43.7587 192.312 43.5151 192.106 43.3394 192.507C43.2334 191.841 43.6545 192.013 43.4977 191.416C43.4654 191.353 43.4369 191.368 43.406 191.42L43.703 190.862C43.5548 190.939 43.3592 190.672 43.3439 191.048C43.3036 189.907 44.1438 189.423 43.8506 188.925L43.7971 189.003C44.3269 187.568 44.2125 188.954 44.9258 187.958L44.1644 186.973L44.5798 186.925C44.6065 186.767 44.6485 186.456 44.4852 186.476C44.8804 185.969 44.6218 186.614 44.9455 186.346C44.7628 185.517 45.6464 184.375 45.0885 184.05C45.4533 183.862 45.1095 184.804 45.5394 184.084C44.9431 183.671 45.9071 183.216 45.7972 182.472C45.4055 182.581 45.4027 183.26 45.2928 182.516C45.9725 182.266 45.5457 181.188 45.8115 180.654C46.266 180.751 46.3504 179.488 46.7665 178.588C46.6032 178.607 47.0301 176.749 47.1216 175.822L47.0385 175.829C47.5402 175.793 47.7148 174.859 47.9966 174.23C47.7177 174.179 47.581 174.264 47.3467 174.566L47.5254 173.947C47.7604 173.794 47.9326 173.561 48.0105 173.292L47.6324 173.343C47.8918 172.531 48.4852 171.806 48.5971 170.68C48.9276 170.719 49.1854 171.82 49.7685 170.739C49.6124 170.647 49.3353 170.516 49.1694 170.782C49.2257 170.695 49.4239 170.492 49.4155 170.279L48.9839 170.632C49.0204 170.116 49.3088 170.464 49.4128 170.064C49.168 169.996 49.3339 169.73 49.1272 169.721C49.0653 169.811 49.1118 170.083 48.9698 170.199C49.0846 169.796 49.0861 169.368 48.9742 168.963C49.0957 169.045 49.3026 169.068 49.4188 168.734C49.7213 167.921 49.2277 168.364 49.2584 167.85C49.5036 167.723 49.4961 167.135 49.8589 167.237C49.9362 166.995 49.7858 166.899 49.7154 166.777C50.0148 166.406 50.4194 164.826 50.6422 165.425L50.6322 165.546L50.6686 165.477C51.4706 164.233 51.4263 162.553 52.0379 161.234L51.9169 161.196C52.329 160.427 52.6 159.4 53.0587 158.918C53.1359 158.676 53.0275 158.27 52.8443 158.307C53.1654 157.856 53.3688 157.332 53.4361 156.782C52.9954 157.327 53.3264 156.5 53.0504 157.364C53.2466 156.541 53.1256 156.279 53.7791 155.545C53.3653 155.722 53.6262 154.801 53.8656 154.454L53.8652 155.096C54.0498 154.717 54.1985 154.321 54.3093 153.914L53.8337 153.972C53.9741 152.147 55.7914 151.331 55.4533 149.781C55.8967 149.451 55.3077 150.744 55.8092 150.47C56.0432 149.693 55.7723 148.693 55.8582 148.454C56.0106 147.351 56.8072 147.718 57.0626 146.591C57.1596 146.779 57.4935 147.09 57.9226 146.313C58.1539 145.544 57.6841 145.152 57.3854 145.58C57.3045 145.759 57.3144 145.862 57.3633 145.873C57.2199 146.098 57.04 146.393 57.0098 146.055L57.1901 146.013C57.1903 145.58 57.5991 144.553 57.2796 144.704C57.626 144.186 57.5932 144.542 57.5129 145.002C57.7385 144.135 58.0229 143.284 58.3643 142.456C58.3753 142.645 58.4755 142.853 58.5395 142.697C58.9853 141.197 59.081 142.179 59.5596 141.232C59.5917 140.595 58.9684 141.22 59.571 140.317C59.6803 139.662 59.2518 140.035 59.0333 140.227C59.6919 139.447 59.5852 138.499 59.7504 137.952L59.4344 138.375C59.5908 138.151 59.7206 137.91 59.8212 137.656L59.9839 138.041C60.0548 137.744 60.1523 137.514 60.034 137.466C60.3413 137.264 60.4095 137.886 60.9029 137.429C60.9204 137.001 61.538 136.379 61.2216 136.088C60.8439 137.301 60.9081 135.803 60.4181 136.756C60.5661 136.546 60.6668 136.307 60.7133 136.055C60.6839 135.998 60.6216 136.059 60.5708 136.129C60.7185 134.876 61.2093 135.799 61.694 134.654C61.425 134.706 61.4159 134.213 61.5253 134.02C61.3303 134.481 61.7739 134.389 62.1194 134.037C62.2757 133.235 62.5863 133.291 62.7305 132.899L62.6217 133.374C62.8935 133.313 63.0236 132.936 63.3102 132.456C63.171 132.34 62.9969 132.87 63.0086 132.655C63.6175 132.254 63.1824 131.201 63.7705 130.523C63.7938 130.092 63.4006 130.31 63.4764 129.953C64.1381 129.193 63.6435 128.878 64.3134 128.078C64.4619 128.477 64.3731 128.487 64.9746 127.96L64.0515 129.375L64.9196 128.594C64.7073 129.05 64.2823 129.472 64.1971 129.768C64.6488 129.412 64.5542 129.425 64.6789 129.75C64.5624 128.938 65.5249 128.592 65.5835 127.783L64.8883 127.485C65.108 126.261 66.1544 125.742 66.6748 124.247L66.5751 124.753C66.9359 124.696 67.0349 123.909 67.3741 123.503C67.1293 123.435 67.1741 123.116 67.1362 122.847C67.2925 122.954 67.6138 121.814 68.1314 121.907L68.1359 121.133C68.5598 119.94 69.4089 120.158 69.8567 119.039C69.4519 119.248 69.5334 118.665 68.9993 119.309C69.1783 118.942 69.2944 118.594 69.4503 118.672C69.4123 118.389 70.2428 117.815 70.217 117.36C70.3937 117.268 70.6469 117.325 70.8281 116.907C70.7957 116.844 70.7156 116.857 70.7156 116.857C70.7156 116.857 71.1877 116.303 71.254 116.781C71.138 115.326 72.9427 113.744 72.8607 112.481C73.3534 111.743 73.9246 110.849 74.3174 110.156C74.2433 110.194 74.2077 110.097 74.1578 110.238C74.4711 109.153 75.1187 109.987 75.4789 108.755C75.4262 107.996 74.9685 109.235 75.0234 108.81C74.3708 108.26 75.8136 107.543 75.8154 106.554L75.6739 106.714C75.7338 106.005 76.691 105.467 77.138 104.515C77.138 104.515 77.0696 104.55 77.0282 104.456C77.8497 103.779 78.5692 102.987 79.1646 102.104C78.7212 102.211 78.7755 102.414 78.5905 102.083C78.8642 101.718 78.9827 102.465 79.5271 101.73C79.5227 101.386 79.7384 100.74 79.4598 100.495L79.0042 101.22C78.8184 100.595 79.5862 100.278 79.7414 99.8513L79.5399 99.7966C80.2662 98.7001 80.7083 98.9407 81.3956 97.7128L81.4556 97.9127C82.2708 97.4917 81.5413 97.2119 82.2674 96.772L81.9488 96.3088C82.6095 95.6818 83.2288 95.0126 83.8027 94.3053C83.1375 94.739 82.5265 95.2507 81.9829 95.8295C82.2413 95.393 82.8911 94.372 83.24 94.2784C83.0927 94.4267 82.8565 94.5847 82.8219 94.7973C83.5634 94.3812 84.1676 93.7582 84.5608 93.0047C83.6495 92.6384 85.6754 90.6182 85.4708 89.6488C86.7513 88.3527 87.2657 86.608 88.449 84.9002C88.6916 85.9293 88.7985 84.4023 89.3849 84.9364C89.69 84.5624 89.7797 84.4006 89.7902 84.323L90.1932 82.8379C90.1965 82.425 89.8009 83.1271 89.6816 82.9939C90.2036 82.075 89.643 82.4439 89.8493 81.7386C89.9934 82.0176 90.3905 81.6538 90.6243 81.0858L90.4665 81.9969C91.6215 80.9892 90.6148 80.564 91.7696 79.542L91.3021 79.7834C91.5682 79.5017 91.9567 78.9114 92.3914 78.355C92.7459 77.8348 93.2414 77.4263 93.8197 77.1773C93.8234 77.0167 93.7512 76.751 93.5075 76.9923C94.4921 75.4449 96.4139 74.0483 96.9273 72.6793L96.6921 72.6853C96.9329 72.4384 97.3284 72.4072 97.4173 71.9501C97.3395 71.9253 97.1792 71.9504 97.2636 71.8203C97.6518 71.5791 97.9762 71.2482 98.2097 70.8555L97.822 71.0557C98.651 69.4588 99.8348 69.136 100.807 67.9989C100.359 67.6751 101.005 66.4104 101.365 65.8063L101.284 65.7758C102.502 64.0934 103.826 63.2727 105.18 61.8952C105.43 60.5756 107.462 58.5525 108.344 56.8344C108.241 57.1254 108.717 57.0674 108.972 56.8346C109.156 56.4077 110.036 56.0976 109.593 55.8283L109.503 55.9614C109.321 55.3846 109.975 54.722 110.439 54.1652L111.04 54.5041C111.501 52.4332 114.518 50.9617 114.507 49.6113C114.94 49.3875 115.293 48.9383 115.715 48.7061L115.422 48.4892C116.049 47.5288 116.75 46.619 117.519 45.7683L117.119 45.8454C117.672 45.1555 118.629 45.6789 119.169 45.0751L118.895 44.5455C119.873 43.3623 120.607 41.9301 121.997 41.1401C121.933 41.1001 121.856 41.0843 121.781 41.0952C121.706 41.1062 121.638 41.1434 121.587 41.2001C122.065 40.6574 123.228 38.9098 123.587 39.5903C123.244 39.2479 124.63 38.3948 125.362 37.952L125.013 37.8075C125.639 37.7426 126.226 37.4726 126.682 37.0395C126.803 36.84 126.611 36.6935 126.472 36.9821C126.842 36.3004 127.123 36.7755 127.618 35.9573L127.215 36.0574C127.329 35.8786 127.485 35.7299 127.669 35.6236C127.853 35.5174 128.059 35.4567 128.271 35.4467C128.713 35.1827 129.229 34.2811 129.07 33.9735C129.259 33.9871 129.447 33.9484 129.615 33.8616C129.783 33.7748 129.924 33.6434 130.022 33.4818C129.958 33.3565 129.804 33.4217 129.721 33.4572C130.444 32.3119 131.408 32.3477 131.79 31.4507C131.76 31.4151 131.741 31.372 131.733 31.3262C131.726 31.2803 131.732 31.2334 131.749 31.1903C131.307 31.6101 130.887 32.0532 130.492 32.5177C130.257 32.2858 130.814 31.6302 130.01 31.8073C130.665 31.4687 131.894 31.0508 132.373 30.3561C132.381 30.3038 132.38 30.2505 132.371 30.1984L132.285 30.2426C132.39 30.0962 132.532 29.9805 132.697 29.9073C132.82 29.7048 132.965 29.5163 133.129 29.3451C132.996 29.0888 133.721 28.5486 134.004 28.2437C134.237 28.5273 134.591 28.0924 134.434 28.6709C134.459 28.6075 134.355 28.7121 134.133 28.8843C134.08 28.9175 134.025 28.946 133.968 28.9697L134.002 28.952L133.274 29.6959C133.475 29.6641 133.664 29.5815 133.825 29.4558C133.985 29.3302 134.11 29.1658 134.189 28.9782C134.51 28.9853 134.852 28.9893 135.023 28.9727C135.083 28.2206 135.667 27.1976 135.577 26.8977C136.626 26.1323 137.84 24.8342 138.886 24.7484C139.223 24.5747 139.056 24.3074 139.077 24.1379C138.883 24.238 138.704 24.4239 138.546 24.4117C139.19 24.0217 140.146 22.922 140.599 23.1425C141.108 22.3384 139.902 23.192 140.91 22.3468L140.687 22.3613C142.032 20.1151 144.525 20.4945 145.927 17.9092C145.823 18.0855 145.772 18.1693 145.796 18.2579C146.885 17.0615 148.077 15.9631 149.358 14.9754C150.619 13.9718 151.776 12.8448 152.813 11.6111C153.41 10.9349 153.679 11.1062 154.248 10.9351L154.145 10.5121L155.149 10.2606C156.366 9.66786 156.289 8.0774 157.965 7.47846L157.967 7.81681C158.395 7.40099 159.519 6.72632 159.253 6.56072C159.331 6.55681 159.576 6.63953 159.67 6.38879L159.576 6.20653L160.916 5.51463C161.694 4.67256 160.269 5.00429 161.529 3.90626C162.073 3.56058 163.257 3.23784 163.157 3.49152C162.975 3.65742 162.747 3.99885 162.864 4.16933L163.371 3.9073C163.824 4.3084 164.535 4.51104 163.736 5.71756L162.724 6.05234L162.67 6.47747L163.306 5.97569C163.12 6.48288 162.75 6.47926 162.392 6.55576C162.411 6.64323 162.412 6.73371 162.393 6.82137C162.375 6.90903 162.339 6.99193 162.287 7.06474L161.201 7.22846C161.259 7.48003 161.817 7.31481 161.421 7.83629C160.915 7.91766 161.419 7.15958 160.728 7.47283C160.548 7.97708 160.793 8.05979 160.23 8.22796C160.272 8.3937 160.419 8.39748 160.627 8.31152C160.141 8.47577 159.578 9.07694 159.209 8.97866C159.053 9.54281 157.905 9.94825 158.303 10.3558C157.843 10.4102 157.401 10.5692 157.012 10.8205C158.074 10.8206 155.769 11.9097 156.403 12.3256C155.553 12.2453 154.576 13.5001 153.542 13.9183C153.605 13.8859 153.772 13.9152 153.822 13.8314C153.55 14.1269 153.333 14.4688 153.181 14.8408C152.795 14.5133 152.033 15.0512 151.458 15.1536C151.227 15.994 152.174 15.2959 152.312 15.8016C152.07 15.4722 151.109 16.3512 151.063 15.9274C150.853 16.5267 150.805 16.3639 150.868 16.8648C150.378 16.4614 150.416 17.1347 149.819 17.1542C149.427 17.9338 150.062 17.7503 149.273 18.1939C149.086 18.6438 149.81 18.2699 149.81 18.2699ZM132.548 33.2815C132.689 33.1219 132.879 32.9301 133.08 32.7324C133.018 32.6128 132.897 32.5599 132.775 32.6877C132.91 32.6687 132.667 33.0104 132.556 33.2699L132.548 33.2815ZM133.453 28.882C133.214 29.0486 133.201 29.1635 133.222 29.2464C133.327 29.1561 133.441 29.0542 133.606 28.9258L133.66 28.9337C133.596 28.9011 133.525 28.8835 133.453 28.882Z" fill="#81A2B2" fill-opacity="0.5"/>
<path d="M134.141 28.844C134.176 28.8285 134.211 28.8108 134.244 28.791C134.23 28.8516 134.21 28.9106 134.183 28.9667L134.033 28.9573L134.141 28.844Z" fill="#81A2B2" fill-opacity="0.5"/>
<path d="M116.685 51.8991L116.618 51.8398L116.778 51.7717L116.685 51.8991Z" fill="#81A2B2" fill-opacity="0.5"/>
<path d="M48.8806 175.173C48.9197 175.211 48.9455 175.261 48.9542 175.315C48.9182 175.275 48.8929 175.226 48.8806 175.173Z" fill="#81A2B2" fill-opacity="0.5"/>
<path d="M47.8021 179.251L47.755 179.86C47.7564 179.656 47.7723 179.452 47.8021 179.251Z" fill="#81A2B2" fill-opacity="0.5"/>
<path d="M47.0765 182.432C47.0237 182.448 46.9684 182.455 46.9132 182.451L47.0765 182.432Z" fill="#81A2B2" fill-opacity="0.5"/>
<path d="M64.8375 134.098L64.905 133.991C65.0856 133.754 64.9788 133.924 64.8375 134.098Z" fill="#81A2B2" fill-opacity="0.5"/>
<path d="M58.1354 147.927C58.256 147.802 58.3684 147.669 58.4718 147.53C58.3976 147.792 58.3284 147.993 58.1354 147.927Z" fill="#81A2B2" fill-opacity="0.5"/>
<path d="M58.7097 146.844C58.6855 147.084 58.6005 147.314 58.4629 147.513C58.5039 147.277 58.5876 147.05 58.7097 146.844Z" fill="#81A2B2" fill-opacity="0.5"/>
<path d="M43.8007 196.086L43.7797 196.241C43.7598 196.243 43.7414 196.252 43.7283 196.267L43.8007 196.086Z" fill="#81A2B2" fill-opacity="0.5"/>
<path d="M43.7167 196.245L43.6555 196.392C43.629 196.34 43.6739 196.259 43.7167 196.245Z" fill="#81A2B2" fill-opacity="0.5"/>
<path d="M43.4588 196.738L43.6555 196.392C43.5937 196.496 43.5815 196.682 43.4588 196.738Z" fill="#81A2B2" fill-opacity="0.5"/>
<path d="M44.6427 191.87L44.7802 191.857C44.7376 191.878 44.6886 191.883 44.6427 191.87Z" fill="#81A2B2" fill-opacity="0.5"/>
<path d="M44.9992 190.604C44.9572 190.914 45.0872 191.432 44.9115 191.833L44.7969 191.848C45.0189 191.705 44.7099 190.869 44.9992 190.604Z" fill="#81A2B2" fill-opacity="0.5"/>
<path d="M44.709 184.91C44.6361 185.272 44.5919 185.634 44.5477 185.996C44.4389 185.786 44.3374 185.477 44.1886 185.958C44.1071 184.514 44.3939 186.314 44.709 184.91Z" fill="#81A2B2" fill-opacity="0.5"/>
<path d="M45.4534 181.582C45.2251 182.133 45.2632 181.522 45.1744 181.531C45.4027 181.204 45.4474 181.109 45.4534 181.582Z" fill="#81A2B2" fill-opacity="0.5"/>
<path d="M52.8189 158.089L52.4969 158.039C52.6838 157.618 52.6179 158.078 52.8189 158.089Z" fill="#81A2B2" fill-opacity="0.5"/>
<path d="M56.0525 154.269L56.0901 154.748L55.7356 154.844L56.0525 154.269Z" fill="#81A2B2" fill-opacity="0.5"/>
<path d="M54.8617 150.859L54.7462 151.027L55.1308 150.359L54.8617 150.859Z" fill="#81A2B2" fill-opacity="0.5"/>
<path d="M71.957 113.15L72.2449 113.455C72.0356 113.693 71.6033 113.542 71.957 113.15Z" fill="#81A2B2" fill-opacity="0.5"/>
<path d="M81.0228 97.7466C80.9904 97.5696 81.0112 97.3868 81.0827 97.2215C81.1541 97.0562 81.273 96.9157 81.4242 96.8179C81.2394 97.1731 81.1759 97.5955 81.0228 97.7466Z" fill="#81A2B2" fill-opacity="0.5"/>
<path d="M111.135 53.4304L110.799 53.6185L111.321 53.1756L111.135 53.4304Z" fill="#81A2B2" fill-opacity="0.5"/>
<path d="M145.395 10.1251C145.345 10.0283 145.23 9.80619 145.331 9.81917L145.528 10.2008L145.395 10.1251Z" fill="#81A2B2" fill-opacity="0.5"/>
<path d="M145.476 9.26069C145.681 9.51141 145.831 9.80246 145.917 10.115C145.726 9.74481 145.757 9.91645 145.522 9.48948C145.45 9.46177 145.475 9.6507 145.54 9.79033C145.49 9.69351 145.487 9.91147 145.369 9.66932C145.322 9.34019 145.407 9.29603 145.591 9.51149C145.567 9.42207 145.528 9.33731 145.476 9.26069Z" fill="#81A2B2" fill-opacity="0.5"/>
<path d="M150.468 6.76175L150.454 6.81929C150.452 6.79913 150.457 6.77885 150.468 6.76175Z" fill="#81A2B2" fill-opacity="0.5"/>
<path d="M153.665 5.45716C153.665 5.45716 153.639 5.40591 153.621 5.37173C153.635 5.38128 153.646 5.39405 153.654 5.40894C153.661 5.42384 153.665 5.44039 153.665 5.45716Z" fill="#81A2B2" fill-opacity="0.5"/>
<path d="M154.087 4.83487C154.087 4.83487 154.087 4.83487 154.052 4.85289C154.017 4.87091 154.072 4.80571 154.087 4.83487Z" fill="#81A2B2" fill-opacity="0.5"/>
<path d="M150.468 6.76175L150.518 6.60628C150.568 6.73178 150.505 6.72111 150.468 6.76175Z" fill="#81A2B2" fill-opacity="0.5"/>
<path d="M146.546 9.94888C146.511 9.92696 146.482 9.89806 146.459 9.86402L146.522 9.88898L146.546 9.94888Z" fill="#81A2B2" fill-opacity="0.5"/>
<path d="M147.803 7.2651C147.895 7.40496 147.971 7.55382 148.033 7.70935C148.013 7.62697 147.974 7.55066 147.918 7.48723L147.803 7.2651Z" fill="#81A2B2" fill-opacity="0.5"/>
<path d="M155.056 19.4495L155.119 19.4744C155.079 19.4664 155.062 19.4609 155.056 19.4495Z" fill="#81A2B2" fill-opacity="0.5"/>
<path d="M156.222 21.3578L156.253 21.3488L156.441 21.418L156.222 21.3578Z" fill="#81A2B2" fill-opacity="0.5"/>
<path d="M154.973 4.06021C154.961 4.06621 154.95 4.07222 154.973 4.06021Z" fill="#81A2B2" fill-opacity="0.5"/>
<path d="M165.491 3.11577C165.068 3.2763 164.744 3.76814 164.298 3.88311C164.666 3.58376 165.066 3.32638 165.491 3.11577Z" fill="#81A2B2" fill-opacity="0.5"/>
<path d="M146.559 9.89142C146.574 9.88799 146.588 9.88076 146.6 9.87041C146.6 9.87041 146.574 9.90593 146.559 9.89142Z" fill="#81A2B2" fill-opacity="0.5"/>
<path d="M157.411 3.52261C157.425 3.57491 157.433 3.62867 157.436 3.68286C157.42 3.63082 157.412 3.57691 157.411 3.52261Z" fill="#81A2B2" fill-opacity="0.5"/>
<path d="M155.802 4.57688L155.83 4.51915C155.822 4.5594 155.814 4.57099 155.802 4.57688Z" fill="#81A2B2" fill-opacity="0.5"/>
<path d="M158.492 3.77208C158.521 3.75736 158.505 3.68587 158.555 3.73969L158.575 3.77955C158.526 3.72574 158.491 3.68607 158.492 3.77208Z" fill="#81A2B2" fill-opacity="0.5"/>
<path d="M159.587 3.45898L159.571 3.5395L159.537 3.55717L159.587 3.45898Z" fill="#81A2B2" fill-opacity="0.5"/>
<path d="M156.352 16.7019L156.633 16.8673C156.402 16.7557 156.265 16.8551 156.352 16.7019Z" fill="#81A2B2" fill-opacity="0.5"/>
<path d="M146.478 9.76054C146.489 9.81165 146.513 9.85888 146.548 9.89721C146.516 9.85707 146.492 9.81053 146.478 9.76054Z" fill="#81A2B2" fill-opacity="0.5"/>
<path d="M159.336 6.48202L159.478 6.40841C159.441 6.44917 159.391 6.47528 159.336 6.48202Z" fill="#81A2B2" fill-opacity="0.5"/>
<path d="M159.158 10.1089L159.107 10.1354C159.107 10.1354 159.112 10.1038 159.158 10.1089Z" fill="#81A2B2" fill-opacity="0.5"/>
<path d="M159.922 6.31624C159.915 6.19016 159.922 6.10691 159.913 6.06115L159.99 6.20925L159.922 6.31624Z" fill="#81A2B2" fill-opacity="0.5"/>
<path d="M155.453 17.5199C155.5 17.373 155.914 17.6284 156.173 17.6966C156.372 17.5935 155.886 17.4911 155.681 17.3448C155.829 17.2682 156.278 17.3683 156.291 17.2821C156.235 17.2419 156.169 17.2162 156.101 17.2072C156.497 17.2334 156.251 16.884 156.746 16.9318L156.642 16.8702C156.833 16.9697 157.031 17.058 157.233 17.1346C157.267 17.0739 157.557 17.1331 157.283 16.9934C157.298 17.0219 157.16 16.9922 157.062 16.9706L157.214 16.9571C156.823 16.7329 157.033 16.9853 156.725 16.8633C156.901 16.772 157.318 16.7808 157.226 16.6042C156.828 16.4203 156.993 16.7823 156.691 16.5053L156.797 16.7103C156.207 16.3369 156.804 16.8221 156.165 16.4378C156.131 16.1888 156.462 16.2847 156.427 16.05C156.675 16.0955 156.756 16.1976 156.998 16.246C157.513 16.1243 156.078 15.6103 156.68 15.6308C156.968 15.6843 157.49 15.8694 157.28 15.617L156.805 15.4801C156.839 15.2674 157.507 15.6369 157.279 15.3074C157.086 15.2698 157.074 15.4134 157.024 15.3452C156.722 15.0682 157.32 15.3584 157.361 15.2575L156.969 15.0707C157.116 14.8938 157.505 14.7939 157.666 14.5881C157.533 14.568 157.408 14.5166 157.299 14.4382C157.618 14.2303 157.503 13.7989 157.381 13.422L157.772 13.4655C157.772 13.4655 157.636 13.3555 157.555 13.3537C157.47 13.1885 157.78 13.4396 157.941 13.4431C157.998 13.4137 157.769 13.2791 157.652 13.275C158.027 13.204 158.512 12.9967 158.226 12.6393L158.103 12.6381C158.028 12.424 158.888 12.7594 158.629 12.4819L158.557 12.4828C158.543 12.0787 159.019 11.84 158.606 11.3609C159.13 11.5231 158.529 10.9318 159.244 11.1975C158.984 10.8626 158.832 10.8618 158.721 10.4934C158.72 10.4074 159.201 10.5701 159.31 10.5142L158.946 10.3556L159.38 10.3985L158.975 10.1459L159.095 10.084C159.152 10.1681 159.236 10.2314 159.332 10.2644C159.552 10.2012 159.218 9.83292 159.062 9.74039L159.501 9.55668C159.394 9.52455 159.281 9.51627 159.171 9.53245C159.61 9.52941 158.798 9.34246 159.206 9.33412C159.299 9.38251 159.397 9.41876 159.5 9.44199C159.463 9.41833 159.433 9.38509 159.413 9.34579C159.393 9.30648 159.385 9.26258 159.388 9.21874C159.391 9.17489 159.406 9.13274 159.432 9.09675C159.457 9.06076 159.491 9.03228 159.532 9.01431L159.272 8.93176C159.312 8.67315 159.602 8.49432 159.714 8.23474C159.787 8.37713 160.229 8.54611 160.305 8.48486L159.933 8.29488C160.192 8.34875 160.046 8.431 160.38 8.46092C160.378 8.34624 159.972 8.20259 159.823 8.20746L160.008 8.14762C159.893 8.09182 159.821 8.09278 159.674 8.03167C159.936 8.09124 159.377 7.66575 159.823 7.77445L159.707 7.71866C159.819 7.45908 160.005 7.39924 160.111 7.19994C160.443 7.33886 160.407 7.2275 160.7 7.27803C160.671 7.16235 160.634 7.04882 160.59 6.93828C160.558 6.85843 160.548 6.77141 160.561 6.68632C160.748 6.71248 160.855 6.77987 161.068 6.82862C160.762 6.7123 160.81 6.66577 160.569 6.63174C160.704 6.56745 160.847 6.52024 160.994 6.49122C161.102 6.50943 161.21 6.51853 161.319 6.51841C161.393 6.48013 161.198 6.45123 161.017 6.46513L160.983 6.48279C161.289 6.40412 161.064 6.31825 160.82 6.33587C160.577 6.35348 160.334 6.42843 160.802 6.23001L160.756 6.25356C160.921 6.16817 161.092 6.07985 161.281 5.98269C161.223 5.96913 160.933 6.16229 160.664 6.25767C161.058 6.05451 161.054 6.00582 161.005 6.00934C160.957 6.01287 160.88 6.0741 161.158 5.84382C160.441 6.27214 160.461 6.269 160.588 6.13824C160.716 6.00749 160.892 5.85888 160.366 6.25308L160.752 5.93819C161.138 5.6233 160.536 6.10741 160.442 6.17749L161.013 5.71674C161.064 5.6706 161.11 5.62006 161.152 5.56575C160.95 5.64837 160.768 5.77192 160.617 5.92853C160.412 6.10023 160.222 6.2899 160.05 6.49532C160.008 6.56758 161.219 4.93973 160.617 5.67619L160.248 6.22026C160.456 5.89629 160.376 5.92317 160.325 5.94966C160.273 5.97616 160.228 5.99972 160.242 5.79019C160.218 5.87026 160.2 5.95198 160.188 6.03468C160.081 6.38597 160.137 6.06116 160.165 5.7941C160.131 5.81176 160.122 6.04703 160.092 6.18507C160.063 6.32312 160.09 5.77504 160.054 6.11102C160.048 6.15189 160.048 6.19338 160.053 6.23435C160.048 6.0853 160.016 6.28932 160.006 5.91955C159.991 6.1004 159.929 5.77146 159.912 6.00396C159.775 5.62729 159.717 6.25607 159.544 5.72503C159.721 6.2761 159.41 6.24872 159.232 6.01598C159.315 6.17545 159.203 6.21137 159.307 6.43938C159.21 6.48944 159.062 6.38533 158.998 6.0937C158.99 6.8193 158.425 5.66842 158.571 6.56686C158.221 6.38843 157.845 6.26852 157.456 6.21193C157.632 6.763 157.803 6.16999 157.959 6.75287C157.61 6.60845 157.309 6.17951 157.057 6.40371C157.012 6.49894 157.174 6.63152 157.221 6.72265C156.872 6.57823 156.696 6.93619 156.358 6.71421C156.371 6.76686 156.396 6.81568 156.431 6.8566C156.391 6.87721 156.341 6.97537 156.275 6.72105L156.338 6.77469C156.305 6.38802 155.911 6.07214 155.842 5.8838C156.149 6.57649 155.656 6.13866 156.069 7.00771C155.985 6.92178 155.928 6.81269 155.907 6.69446C155.873 6.75513 155.889 6.85528 155.995 7.03165C155.778 6.94853 155.755 6.66497 155.603 6.72149C155.644 6.82266 155.695 6.91988 155.753 7.01195C155.596 6.80474 155.441 6.5889 155.342 6.7336C155.378 6.80195 155.387 6.90505 155.425 6.89307C155.184 6.93072 154.836 6.38197 154.656 6.69121C154.912 7.18673 154.624 6.89524 154.756 7.36087L154.577 7.26579L154.563 7.02798C154.454 7.08392 154.238 6.77712 154.18 6.95856L154.329 7.12002L154.082 7.10326L154.151 6.88727C153.956 6.69203 153.974 6.30755 153.859 6.48975C153.882 6.53532 153.75 6.54569 153.768 6.81787C153.66 6.69314 153.555 6.55977 153.5 6.7039C153.444 6.84802 153.684 7.20038 153.709 7.31762C153.523 6.9588 153.398 7.30458 153.193 6.92023C153.254 7.04172 153.301 7.17008 153.332 7.30262L153.18 7.00645C153.155 7.12735 153.174 7.25295 153.233 7.3613C153.073 7.44374 153.099 6.76665 152.98 7.08082C152.98 7.08082 153.015 7.14916 153.041 7.20042C152.883 7.39754 152.593 7.12904 152.464 7.34011C152.559 7.81771 152.659 7.39769 152.708 7.81283C152.421 7.81669 151.992 7.46116 151.773 7.63902L151.798 7.5756C151.549 6.93949 151.72 7.95516 151.49 7.69157C151.551 7.77203 151.598 7.86263 151.628 7.95927C151.489 8.12458 151.226 7.92167 150.894 7.81142L150.974 7.96521C150.924 8.14939 150.741 8.14327 150.653 8.25341C150.574 8.09963 150.514 8.15204 150.468 7.89459C150.453 8.95579 149.638 7.60179 149.621 8.50531C149.655 8.48764 149.757 8.61531 149.728 8.63003L149.421 8.56535C149.38 8.43093 149.364 8.29037 149.372 8.15021C149.29 7.99073 149.165 7.88917 149.1 7.91586C149.282 8.05965 149.257 8.36108 149.268 8.55019C149.23 8.47615 149.183 8.38503 149.176 8.28763C149.212 8.83199 148.954 7.73143 148.887 8.13378L148.958 8.27048C148.86 8.22019 148.728 8.04991 148.669 8.11666C148.753 8.44816 148.797 8.23824 148.875 8.51534C148.784 8.56245 148.472 8.00173 148.477 8.33144C148.558 8.4049 148.618 8.38116 148.693 8.45756C148.727 8.8729 148.68 8.78177 148.624 8.86855L148.506 9.10241L148.516 8.98185C148.102 8.17878 148.197 8.92305 147.829 8.43478C148.182 8.89457 147.976 8.71956 148.107 9.08485C148.082 9.20324 148.09 9.3264 148.132 9.44009C147.942 9.17023 148.081 9.71892 147.809 9.33259C147.865 9.44081 147.724 9.37676 147.851 9.66467C147.712 9.60632 147.802 9.44453 147.737 9.30489C147.429 8.9592 147.533 9.92991 147.096 9.46263C146.811 9.3145 146.628 8.93269 146.365 8.80145C146.386 8.95853 146.461 9.10344 146.577 9.21154C146.534 9.42145 146.445 9.41691 146.315 9.34697C146.369 9.45135 146.399 9.56661 146.402 9.68418C146.313 9.67964 146.19 9.2741 146.156 9.48676C146.225 9.641 146.302 9.79122 146.388 9.9367C146.261 9.85812 146.086 9.67408 145.956 9.60414C146.005 9.76021 146.093 9.90119 146.211 10.0136C146.103 9.99273 146.001 9.94626 145.914 9.8781C145.828 9.80993 145.758 9.72205 145.713 9.62175L145.734 9.48095C145.7 9.49862 145.824 9.7665 145.87 9.81463C146.056 10.0358 145.96 9.65283 145.921 9.53578L145.829 9.48254C145.642 8.77104 146.139 9.49559 146.258 9.40509L146.011 8.92666L146.305 9.28688C146.287 9.11261 146.219 8.94724 146.11 8.81062C146.115 8.52666 146.258 8.95774 146.243 8.64825C146.237 8.61803 146.223 8.59016 146.201 8.56852L146.355 8.68402C146.302 8.5815 146.236 8.32718 146.214 8.41063C146.284 8.05698 146.63 8.68605 146.559 8.28268L146.542 8.24851C146.844 8.33047 146.724 8.60163 147.033 8.97599L146.823 8.02393L147.002 8.37135C147.031 8.35663 147.062 8.30459 147.002 8.16201C147.186 8.37748 147.045 8.32776 147.197 8.53792C147.189 8.15951 147.579 8.57866 147.393 7.98184C147.532 8.24953 147.359 8.23752 147.553 8.38975C147.373 7.76131 147.741 8.44457 147.742 8.11191C147.583 7.80435 147.551 8.00839 147.527 7.69615C147.798 8.22014 147.694 7.50178 147.812 7.54894C147.973 7.98552 148.078 7.6572 148.286 7.7519C148.212 7.60951 148.485 7.41085 148.571 7.20036L148.536 7.132C148.722 7.5625 148.841 7.429 148.976 7.48166C148.937 7.30785 148.854 7.14702 148.735 7.01462L148.832 6.96456C148.87 7.06607 148.946 7.14854 149.045 7.19398L148.883 6.88073C149.02 6.85307 149.288 7.17636 149.382 6.89694C149.501 7.19644 149.546 7.8009 149.803 7.94942C149.763 7.76577 149.687 7.59158 149.581 7.43624C149.581 7.43624 149.686 7.55526 149.694 7.472L149.527 7.21903C149.562 7.0637 149.642 7.44116 149.701 7.38874C149.615 7.1519 149.693 7.20532 149.616 7.01423C149.616 7.01423 149.592 7.135 149.536 7.05546C149.575 6.99198 149.6 6.92125 149.611 6.84764C149.621 6.77402 149.616 6.69907 149.597 6.62739C149.662 6.75269 149.713 6.94985 149.77 6.96341C149.828 6.97697 149.715 6.6602 149.753 6.51057C149.836 6.67005 149.861 6.45462 149.992 6.81991C150.032 6.7993 149.984 6.63649 149.966 6.53064C150.088 6.66951 150.306 6.46299 150.36 6.87519C150.705 7.15157 150.766 6.51415 151.042 6.58785L150.987 6.47964C151.168 6.56609 151.313 6.45517 151.497 6.68497C151.537 6.66436 151.52 6.43518 151.455 6.29555C151.59 6.34821 151.644 6.4794 151.732 6.2316C151.555 6.0562 151.704 6.03698 151.57 6.11334C151.674 5.96569 151.64 5.75968 151.893 6.04016C151.743 5.74969 151.865 5.62189 151.961 5.69516L151.938 5.94495C151.975 5.94491 152.011 5.93606 152.044 5.91916C152.077 5.90226 152.105 5.87778 152.126 5.84778L151.958 5.45145C152.071 4.87355 152.732 6.12638 152.675 5.23247C152.816 5.50585 152.586 5.48027 152.762 5.79334C152.87 5.69439 152.805 5.05007 152.839 5.0324C152.944 4.7471 153.196 5.56957 153.325 5.3585C153.353 5.51011 153.455 5.90445 153.649 5.98501C153.774 5.92023 153.612 5.32598 153.493 5.23582C153.464 5.25054 153.462 5.28784 153.48 5.33635C153.432 5.31267 153.394 5.27454 153.369 5.22744C153.345 5.18035 153.336 5.12674 153.344 5.07435L153.415 5.21104C153.43 5.04452 153.61 5.00195 153.496 4.77982C153.547 4.81442 153.583 4.868 153.596 4.929C153.609 4.98999 153.597 5.05351 153.563 5.10583C153.657 4.84075 153.817 5.01064 153.941 4.81685C153.939 4.9115 153.97 5.08314 153.996 5.07706C154.188 4.81926 154.191 5.31531 154.378 5.32714C154.406 5.07441 154.176 4.81083 154.404 4.9454C154.412 4.85422 154.4 4.76246 154.369 4.67631C154.338 4.59017 154.29 4.51164 154.226 4.44597C154.467 4.675 154.458 4.16757 154.534 4.09198L154.415 4.00182C154.435 4.02031 154.46 4.03245 154.486 4.0367C154.513 4.04094 154.54 4.03708 154.565 4.02562L154.606 4.32902C154.64 4.26834 154.682 4.25343 154.641 4.13068C154.735 4.31294 154.753 4.62814 154.934 4.85224C154.949 4.68572 155.173 4.95225 155.079 4.56066C154.918 4.75209 154.983 4.16336 154.79 4.15448C154.817 4.20574 154.877 4.182 154.904 4.0956C154.9 4.0583 154.882 4.02386 154.854 3.99877C154.941 3.59328 155.066 4.40885 155.275 4.33723C155.169 4.13219 155.192 3.91107 155.238 3.94486C155.164 3.98313 155.314 4.31662 155.44 4.46118C155.515 4.25657 155.616 4.55057 155.678 4.50385L155.625 4.61067C155.731 4.81571 155.774 4.77212 155.88 4.81083C155.835 4.63939 155.767 4.71771 155.786 4.62856C155.977 4.99877 155.886 4.16554 156.107 4.38337C156.122 4.21684 155.987 3.9692 156.014 3.85413C156.25 4.0861 156.087 3.50617 156.322 3.69514C156.318 3.78757 156.335 3.87973 156.373 3.96433C156.41 4.04893 156.467 4.12365 156.538 4.18258L156.206 4.05801L156.507 4.42962C156.433 4.4679 156.281 4.30074 156.248 4.36141C156.301 4.41265 156.344 4.47473 156.372 4.54356C156.4 4.61238 156.413 4.68639 156.41 4.76069C156.384 4.29076 156.703 4.94888 156.73 4.59581L156.584 3.94969C156.676 3.56993 157.035 4.22179 157.232 3.96105L157.188 4.11361C157.327 4.38131 157.352 4.10855 157.471 4.19872C157.42 4.03688 157.398 3.86722 157.407 3.69775C157.449 3.87783 157.572 3.61236 157.748 4.10609L157.766 3.75026C157.93 3.56453 158.199 4.37818 158.366 4.24115C158.237 3.99054 158.266 3.79515 158.072 3.67159C158.129 3.64215 158.192 3.60977 158.231 3.75549C158.22 3.59505 158.504 4.03283 158.498 3.78343C158.551 3.88595 158.635 4.13144 158.7 4.09042C158.686 4.05217 158.667 4.01581 158.644 3.98219C158.7 4.09041 158.807 4.11478 158.819 4.40424C158.814 3.58418 159.343 4.31404 159.491 3.56648C159.699 3.5949 159.91 3.59976 160.12 3.58096C160.087 3.51831 160.124 3.449 160.073 3.48984C160.35 3.17354 160.151 4.2286 160.419 3.88088C160.631 3.39628 160.316 3.68155 160.431 3.48501C160.52 3.02787 160.615 3.02945 160.713 3.07975C160.811 3.13004 160.896 3.22354 161.066 2.89721L161.043 2.85165C161.317 2.48665 161.313 3.10897 161.561 2.97372C161.58 2.92379 161.604 2.87552 161.631 2.82939C161.582 3.28026 161.75 3.38123 161.839 3.44311C161.916 3.22584 162.024 3.02135 162.162 2.8366C162.228 2.86725 161.774 3.48414 161.821 3.57527C162.102 3.28164 162.367 2.9737 162.616 2.6527L162.429 2.68387C162.921 2.08367 162.684 2.6317 162.858 2.50606L163.029 2.2514C163.308 2.24479 162.782 2.90567 163.113 2.77791L162.912 2.98994C162.507 3.60332 163.378 2.57648 163.088 3.03632L163.903 2.33428C163.879 2.46938 163.657 2.90822 163.681 2.99679C163.939 2.72064 164.136 2.39501 164.263 2.03982C164.383 1.97799 164.641 1.97451 164.341 2.31692C164.366 2.25349 164.482 2.09995 164.297 2.23148C163.899 2.74726 163.75 2.99014 163.939 2.93599C164.385 2.4269 164.954 2.04101 165.592 1.81548C165.777 1.7477 165.947 1.64515 166.093 1.51337C165.674 2.00362 165.648 2.14736 165.672 2.27893C165.703 2.37125 165.713 2.46942 165.7 2.56598C165.687 2.66254 165.653 2.75497 165.599 2.83623C164.476 3.45926 165.495 3.01254 164.288 3.78008C164.164 3.93087 164.167 3.95089 164.241 3.91262C164.427 3.86191 164.616 3.82676 164.808 3.80751C165.105 3.69742 165.114 3.54817 165.371 3.40134C165.336 3.62834 165.816 3.22903 166.023 3.26639C165.636 3.4666 165.392 3.69354 165.47 3.77565C165.338 3.78602 165.195 3.8023 165.055 3.82426C164.666 4.17646 164.869 4.12212 165.064 4.09369C165.259 4.06526 165.442 4.05705 165.065 4.38903L165.466 4.10262C165.181 4.64039 164.743 5.08219 164.208 5.37266C164.371 5.37622 164.531 5.32897 164.665 5.23747C164.509 5.553 164.29 5.83315 164.022 6.06051C163.755 6.32791 163.546 6.5372 163.694 6.71299L163.957 6.63489C163.852 6.7252 163.506 6.76714 163.662 6.88834C163.742 6.89013 163.877 6.87111 163.872 6.91706C163.867 6.96301 163.418 7.10096 163.486 7.23196L163.743 7.17114C163.787 7.70391 162.89 7.81347 162.685 7.91946C162.841 7.96553 162.982 8.05263 163.093 8.17168C163.204 8.29072 163.281 8.43737 163.316 8.59633L163.391 8.62973C163.321 8.96905 162.73 8.97126 162.388 9.14791C162.87 9.5773 162.363 9.88236 162.546 10.2928C162.407 10.1939 162.239 10.1438 162.068 10.1501C162.13 10.2697 161.624 10.1848 162.105 10.3762C162.545 10.6255 162.365 10.7111 162.338 10.8261L161.703 10.5766C162.484 11.2486 161.048 11.1818 161.792 11.6851C161.605 11.6876 161.581 11.7941 161.391 11.7765L161.723 11.9155C161.741 12.0134 161.735 12.1145 161.705 12.2095C161.674 12.3045 161.621 12.3905 161.549 12.4598L161.808 12.5136C161.773 12.6546 160.772 12.2695 160.693 12.3681L161.175 12.6168C161.069 12.8447 161.41 13.2674 160.86 13.3064C160.932 13.3341 161.082 13.3865 161.119 13.3602C161.083 13.4725 161.275 13.9288 160.617 13.6193C161.064 13.814 160.563 13.8781 160.311 13.9217L160.648 14.0433C160.185 13.9721 160.067 13.925 159.911 14.0131C159.94 14.07 160.159 14.1589 160.095 14.0766C160.198 14.2759 159.747 14.0325 159.862 14.2546L160.095 14.2859C160.071 14.421 159.958 14.3566 159.688 14.3229C159.527 14.348 159.674 14.5898 159.966 14.735C159.776 14.6744 159.505 14.6408 159.558 14.7433C159.63 14.782 159.71 14.8026 159.791 14.8033C159.941 15.0937 159.283 14.9506 159.553 15.2223C159.62 15.2479 159.682 15.2838 159.738 15.3288C159.796 15.1617 159.834 15.0264 159.8 15.0297C160.109 15.1517 160.108 15.3037 160.562 15.3578C160.286 15.3701 159.715 15.3405 159.804 15.5257L159.908 15.5874L159.936 15.5727C159.96 15.6183 159.917 15.6332 159.845 15.6198C159.773 15.6064 159.898 15.7223 159.913 15.7508C160.161 15.8679 160.013 15.9445 159.973 16.0224C159.642 15.8835 159.66 15.9893 159.417 15.7976C159.417 15.7976 159.451 15.78 159.491 15.7593C159.503 15.7502 159.516 15.7432 159.531 15.7387C159.565 15.6905 159.594 15.6393 159.618 15.5856C159.428 15.5681 159.262 15.5674 159.407 15.6945L158.834 15.5646C159.26 15.8428 159.444 16.1156 159.721 16.2609C159.459 16.3964 159.408 16.6752 158.726 16.5439C158.635 16.591 158.883 16.6794 158.973 16.7413C159.062 16.8032 159.058 16.6971 159.153 16.7131C158.947 16.7617 158.95 17.0198 158.509 16.8651C158.63 17.0986 158.944 16.951 158.791 17.1165L158.935 17.1433C159.482 17.8126 157.577 17.3107 158.293 18.1097C158.26 18.0587 158.214 18.0177 158.159 17.991C158.345 18.6165 157.381 18.8474 157.83 19.6042C157.921 19.7807 157.624 19.7102 157.369 19.6907L157.718 19.8637L157.244 19.8414C156.861 19.924 157.988 20.5397 157.311 20.5718L157.086 20.4429C157.093 20.5546 156.825 20.6787 157.11 20.7695C157.076 20.7871 156.845 20.7042 156.961 20.7887L157.146 20.8665L156.734 20.9638C156.803 21.1951 157.492 21.2289 157.429 21.4993C157.182 21.5592 156.924 21.5447 156.685 21.4577C156.671 21.4292 156.612 21.3153 156.419 21.2347L156.293 21.2995C155.762 21.185 155.266 20.9471 154.844 20.605L155.24 20.5882L154.994 20.4338L154.924 20.5494C154.701 20.3832 154.945 20.423 155.123 20.4464C155.022 20.4017 154.929 20.3398 154.848 20.2637L155.437 20.3274C155.227 20.227 154.98 20.2246 154.898 20.0795C155.171 20.1045 155.363 20.337 155.566 20.2827C155.343 20.1165 155.13 20.0534 155.376 20.0558C155.284 20.0005 155.177 19.9731 155.068 19.9768C155.266 19.9684 155.218 19.8056 155.526 19.8846C155.246 19.6906 155.71 19.6671 155.18 19.4649C155.315 19.4889 155.645 19.4988 155.693 19.4379C155.014 19.3123 155.761 19.1646 155.07 18.9301C155.674 19.0654 155.454 18.6956 155.838 18.656C155.798 18.6766 155.688 18.6322 155.714 18.6548C155.702 18.546 155.543 18.4478 155.461 18.3456C155.751 18.4501 156.058 18.4994 156.367 18.4912C155.961 18.1955 155.791 18.3412 155.372 18.1317C155.75 18.2901 155.825 18.0855 156.148 18.236C156.013 18.0981 155.853 17.9873 155.676 17.9097C156.267 18.1312 155.796 17.8479 156.196 17.9372C155.958 17.6995 155.662 17.6862 155.896 17.6229C155.833 17.5766 155.762 17.5436 155.686 17.5259C155.609 17.5082 155.53 17.5061 155.453 17.5199ZM157.895 14.39C157.897 14.4332 157.887 14.476 157.865 14.5138C157.975 14.5725 158.096 14.611 158.102 14.5794C158.107 14.5478 157.991 14.4633 157.907 14.3842L157.895 14.39ZM159.978 15.9048C160.035 15.8753 159.98 15.8388 159.925 15.8023C159.899 15.8184 159.873 15.8322 159.845 15.8435L159.83 15.815L159.978 15.9048Z" fill="#81A2B2" fill-opacity="0.5"/>
<path d="M159.512 15.8135C159.512 15.8135 159.512 15.8135 159.483 15.8282L159.417 15.7689L159.532 15.796L159.512 15.8135Z" fill="#81A2B2" fill-opacity="0.5"/>
<path d="M158.863 10.348L158.946 10.3842L158.863 10.3767L158.863 10.348Z" fill="#81A2B2" fill-opacity="0.5"/>
<path d="M148.684 8.84492L148.634 9.00043C148.644 8.9467 148.661 8.89444 148.684 8.84492Z" fill="#81A2B2" fill-opacity="0.5"/>
<path d="M156.472 6.89341C156.524 6.93858 156.564 6.96097 156.472 6.89341Z" fill="#81A2B2" fill-opacity="0.5"/>
<path d="M153.785 6.83775C153.824 6.88928 153.868 6.93673 153.916 6.97936C153.888 7.03709 153.854 7.05475 153.785 6.83775Z" fill="#81A2B2" fill-opacity="0.5"/>
<path d="M154.034 6.9549C154.018 7.03541 153.972 7.03029 153.931 7.00789C153.891 6.98549 153.982 6.90971 154.034 6.9549Z" fill="#81A2B2" fill-opacity="0.5"/>
<path d="M145.936 10.026L146.026 10.0879C146.026 10.0879 145.995 10.1399 145.936 10.026Z" fill="#81A2B2" fill-opacity="0.5"/>
<path d="M146.933 9.70566C146.888 9.72921 146.911 10.0128 146.813 9.96248L146.763 9.86566C146.872 10.0334 146.813 9.51514 146.933 9.70566Z" fill="#81A2B2" fill-opacity="0.5"/>
<path d="M147.231 7.87795L147.096 8.03462C147.079 7.89146 147.054 7.70254 146.965 7.698C147.042 7.2324 147.026 8.01262 147.231 7.87795Z" fill="#81A2B2" fill-opacity="0.5"/>
<path d="M147.697 7.493C147.582 7.46587 147.606 7.31642 147.599 7.23335C147.701 7.33235 147.727 7.35495 147.697 7.493Z" fill="#81A2B2" fill-opacity="0.5"/>
<path d="M151.573 6.14788L151.457 5.83973C151.529 5.83876 151.499 5.96248 151.573 6.14788Z" fill="#81A2B2" fill-opacity="0.5"/>
<path d="M152.842 7.51273L152.839 7.73072L152.712 7.45714L152.842 7.51273Z" fill="#81A2B2" fill-opacity="0.5"/>
<path d="M152.559 5.1479L152.507 5.11706L152.666 5.18662L152.559 5.1479Z" fill="#81A2B2" fill-opacity="0.5"/>
<path d="M159.254 3.21996L159.317 3.62059C159.227 3.57305 159.061 3.15373 159.254 3.21996Z" fill="#81A2B2" fill-opacity="0.5"/>
<path d="M163.471 2.49212C163.74 2.21608 164.027 2.00289 163.882 2.28013C163.733 2.31368 163.463 2.56105 163.471 2.49212Z" fill="#81A2B2" fill-opacity="0.5"/>
<path d="M162.152 10.9001L162.302 10.8953L162.153 10.9575L162.152 10.9001Z" fill="#81A2B2" fill-opacity="0.5"/>
</svg>
